<svg width="508" height="348" viewBox="0 0 508 348" fill="none" xmlns="http://www.w3.org/2000/svg">
<g clip-path="url(#clip0)">
<g opacity="0.25">
<path d="M36.0743 190.197L0.0270996 294.02L154.013 347.484L190.06 243.661L36.0743 190.197Z" fill="#EBEBEB"/>
<path d="M190 243.7C190 243.7 189.4 244.1 188.1 244.6C186.7 245.2 184.8 245.9 182.5 246.9C177.5 248.9 170.4 251.6 161.8 255C144.1 261.8 120 271 93.1999 281.2L92.5999 281.4L92.2999 280.9C92.0999 280.5 91.7999 280.1 91.4999 279.7C76.0999 255.1 62.1999 232.9 51.9999 216.6C47.0999 208.6 42.9999 202.1 40.1999 197.4C38.8999 195.2 37.7999 193.5 36.9999 192.1C36.2999 190.9 35.8999 190.2 35.9999 190.2C35.9999 190.2 36.4999 190.8 37.2999 191.9C38.1999 193.2 39.2999 194.9 40.6999 197C43.6999 201.6 47.7999 208 52.8999 215.9C63.1999 232.1 77.2999 254.3 92.7999 278.7C93.0999 279.1 93.2999 279.5 93.5999 279.9L92.6999 279.6C119.5 269.5 143.7 260.4 161.4 253.8C170.1 250.6 177.2 248 182.2 246.1C184.6 245.3 186.5 244.6 187.9 244.1C189.3 243.9 190 243.7 190 243.7Z" fill="#E0E0E0"/>
<path d="M-3.19331e-05 294C-0.200032 293.6 16.3 283.4 36.9 271.2C57.5 259 74.3 249.3 74.5 249.7C74.7 250.1 58.2 260.3 37.6 272.5C17.1 284.8 0.199968 294.4 -3.19331e-05 294Z" fill="#E0E0E0"/>
<path d="M126.2 266.2C126.6 266.1 133.1 284.2 140.8 306.6C148.5 329.1 154.4 347.4 154 347.5C153.6 347.6 147.1 329.5 139.4 307.1C131.7 284.6 125.8 266.3 126.2 266.2Z" fill="#E0E0E0"/>
</g>
<g opacity="0.25">
<path d="M490.401 163.292L338.079 189.109L355.491 291.84L507.812 266.023L490.401 163.292Z" fill="#E0E0E0"/>
<path d="M490.4 163.3C490.4 163.3 490 163.9 489.2 164.9C488.3 166 487.1 167.5 485.6 169.3C482.3 173.2 477.7 178.7 472.1 185.5C460.5 199.2 444.6 217.9 427.1 238.6L426.7 239L426.2 238.7C425.8 238.5 425.4 238.3 425 238C401 224.6 379.3 212.5 363.4 203.6C355.6 199.2 349.3 195.6 344.8 193C342.7 191.8 341 190.8 339.8 190.1C338.7 189.4 338.1 189 338.1 189C338.1 189 338.8 189.3 339.9 189.9C341.2 190.6 342.9 191.5 345 192.6C349.6 195.1 356 198.5 363.8 202.8C379.7 211.6 401.5 223.6 425.6 236.8C426 237 426.4 237.3 426.8 237.5L425.9 237.7C443.6 217.1 459.6 198.5 471.2 184.9C477 178.3 481.7 172.9 485 169C486.6 167.2 487.9 165.8 488.8 164.7C489.9 163.8 490.4 163.3 490.4 163.3Z" fill="#EBEBEB"/>
<path d="M355.4 291.8C355.1 291.6 364.1 275.6 375.7 256C387.2 236.4 396.8 220.7 397.2 220.9C397.5 221.1 388.5 237.1 376.9 256.7C365.4 276.3 355.8 292 355.4 291.8Z" fill="#EBEBEB"/>
<path d="M447.6 211.1C447.9 210.8 461.5 222.9 478.2 238C494.8 253.2 508.1 265.7 507.8 266C507.5 266.3 493.9 254.2 477.2 239.1C460.6 223.9 447.3 211.4 447.6 211.1Z" fill="#EBEBEB"/>
</g>
<g opacity="0.25">
<path d="M338.034 0.0350791L310.591 69.8301L414.167 110.555L441.61 40.7598L338.034 0.0350791Z" fill="#EBEBEB"/>
<path d="M441.6 41.7003C441.6 41.7003 441.2 41.9003 440.3 42.2003C439.3 42.6003 438 43.0003 436.4 43.6003C432.9 44.8003 428 46.5003 422.1 48.5003C409.9 52.6003 393.1 58.3003 374.6 64.5003L374.2 64.6003L374 64.2003C373.8 63.9003 373.7 63.6003 373.5 63.3003C363.7 46.1003 354.8 30.6003 348.3 19.2003C345.2 13.6003 342.6 9.00029 340.8 5.80029C340 4.30029 339.3 3.10029 338.8 2.10029C338.4 1.30029 338.1 0.800293 338.2 0.800293C338.2 0.800293 338.5 1.20029 339 2.00029C339.5 2.90029 340.3 4.10029 341.2 5.60029C343.1 8.80029 345.8 13.3003 349 18.9003C355.6 30.2003 364.6 45.7003 374.5 62.9003C374.7 63.2003 374.8 63.5003 375 63.8003L374.4 63.6003C393 57.5003 409.7 51.9003 422 47.9003C428 46.0003 432.9 44.4003 436.4 43.3003C438 42.8003 439.3 42.4003 440.3 42.1003C441.1 41.8003 441.6 41.7003 441.6 41.7003Z" fill="#E0E0E0"/>
<path d="M310.6 70.8001C310.5 70.6001 322 64.0001 336.4 56.3001C350.8 48.5001 362.5 42.4001 362.7 42.7001C362.8 42.9001 351.3 49.4001 336.9 57.2001C322.5 64.9001 310.8 71.0001 310.6 70.8001Z" fill="#E0E0E0"/>
<path d="M397.5 55.3004C397.8 55.2004 401.7 67.7004 406.3 83.3004C410.9 98.8004 414.4 111.5 414.2 111.6C413.9 111.7 410 99.2004 405.4 83.6004C400.7 68.0004 397.2 55.3004 397.5 55.3004Z" fill="#E0E0E0"/>
</g>
<path d="M136.5 168L372.4 166.3L379 326.6L134.7 324.4L136.5 168Z" fill="#E30713"/>
<path d="M136.5 168L248.1 77.6999C252.8 73.8999 259.6 73.8999 264.3 77.7999L372.3 166.4" fill="#E30713"/>
<g opacity="0.3">
<g opacity="0.3">
<g opacity="0.3">
<path opacity="0.3" d="M136.5 168L248.1 77.6999C252.8 73.8999 259.6 73.8999 264.3 77.7999L372.3 166.4" fill="black"/>
</g>
</g>
</g>
<path d="M134.7 324.4C134.4 324.1 153.3 303.5 176.9 278.4C200.5 253.2 219.8 233.1 220.1 233.4C220.4 233.7 201.5 254.3 177.9 279.4C154.4 304.5 135 324.7 134.7 324.4Z" fill="#263238"/>
<path d="M379 326.6C378.7 326.9 360.3 306.7 337.9 281.5C315.5 256.3 297.6 235.7 297.9 235.4C298.2 235.1 316.6 255.3 339 280.5C361.4 305.7 379.3 326.4 379 326.6Z" fill="#263238"/>
<g opacity="0.5">
<g opacity="0.5">
<g opacity="0.5">
<path opacity="0.5" d="M372.4 166.3L254 260.9L136.5 168" fill="black"/>
</g>
</g>
</g>
<path d="M148.4 176.8L148.1 103.1L354.6 100.6L356.9 178.2L254 259.7L148.4 176.8Z" fill="#FAFAFA"/>
<path d="M148.4 176.8C148.4 176.8 149.1 177.3 150.3 178.3C151.6 179.3 153.5 180.8 155.9 182.7C160.8 186.5 168 192.2 177.2 199.4C195.6 213.8 222 234.5 254 259.6H253.7C283.4 236.1 318.5 208.2 356.6 178.1L356.5 178.3C356.1 163.5 355.6 148 355.1 132.2C354.8 121.6 354.5 111.1 354.2 100.8L354.5 101.1C271.3 102 197.8 102.9 148 103.4L148.2 103.2C148.3 126.4 148.3 144.8 148.4 157.4C148.4 163.7 148.4 168.6 148.4 171.9C148.4 173.5 148.4 174.8 148.4 175.6C148.4 176.3 148.4 176.8 148.4 176.8C148.4 176.8 148.4 176.4 148.4 175.5C148.4 174.7 148.4 173.4 148.4 171.8C148.4 168.5 148.3 163.7 148.3 157.4C148.2 144.8 148.1 126.3 147.9 103.1V102.9H148.1C198 102.3 271.4 101.4 354.6 100.4H354.9V100.7C355.2 111 355.5 121.5 355.8 132.1C356.3 147.9 356.7 163.4 357.2 178.2V178.3L357.1 178.4C319 208.5 283.8 236.4 254.1 259.9L254 260L253.9 259.9C221.9 234.7 195.5 213.9 177.1 199.5C167.9 192.3 160.8 186.6 155.9 182.8C153.5 180.9 151.6 179.4 150.4 178.4C149 177.3 148.4 176.8 148.4 176.8Z" fill="#263238"/>
<path d="M321.9 137.7C321.9 137.8 290.3 138.2 251.4 138.4C212.4 138.6 180.9 138.7 180.9 138.6C180.9 138.5 212.5 138.1 251.4 137.9C290.4 137.7 321.9 137.6 321.9 137.7Z" fill="#263238"/>
<path d="M321.9 158.5C321.9 158.6 290.3 159 251.4 159.2C212.4 159.4 180.9 159.5 180.9 159.4C180.9 159.3 212.5 158.9 251.4 158.7C290.4 158.5 321.9 158.4 321.9 158.5Z" fill="#263238"/>
<path d="M321.9 182.5C321.9 182.6 290.3 183 251.4 183.2C212.4 183.4 180.9 183.5 180.9 183.4C180.9 183.3 212.5 182.9 251.4 182.7C290.4 182.5 321.9 182.4 321.9 182.5Z" fill="#263238"/>
<path d="M321.9 206.5C321.9 206.6 291.8 206.9 254.6 207.2C217.4 207.4 187.3 207.5 187.3 207.3C187.3 207.2 217.4 206.9 254.6 206.6C291.8 206.4 321.9 206.4 321.9 206.5Z" fill="#263238"/>
<path d="M295.5 227.6C295.5 227.6 295.2 227.6 294.7 227.7C294.1 227.7 293.3 227.7 292.3 227.8C290.2 227.8 287.2 227.9 283.6 227.9C276.2 228 266 228.2 254.8 228.3C243.6 228.5 233.4 228.6 226 228.6C222.4 228.6 219.4 228.6 217.3 228.6C216.3 228.6 215.5 228.6 214.9 228.6C214.4 228.6 214.1 228.6 214.1 228.6C214.1 228.6 214.4 228.6 214.9 228.5C215.5 228.5 216.3 228.5 217.3 228.4C219.4 228.4 222.4 228.3 226 228.3C233.4 228.2 243.6 228 254.8 227.9C266 227.7 276.2 227.6 283.6 227.6C287.2 227.6 290.2 227.6 292.3 227.6C293.3 227.6 294.1 227.6 294.7 227.6C295.2 227.5 295.5 227.5 295.5 227.6Z" fill="#263238"/>
<path d="M268.9 247.8C268.9 247.9 262.2 248.1 253.9 248.1C245.6 248.1 238.9 248 238.9 247.8C238.9 247.7 245.6 247.5 253.9 247.5C262.2 247.5 268.9 247.7 268.9 247.8Z" fill="#263238"/>
<path opacity="0.65" d="M338.5 231.4C352.252 231.4 363.4 220.252 363.4 206.5C363.4 192.748 352.252 181.6 338.5 181.6C324.748 181.6 313.6 192.748 313.6 206.5C313.6 220.252 324.748 231.4 338.5 231.4Z" fill="#1A1A1A"/>
<path d="M332 231.4C345.752 231.4 356.9 220.252 356.9 206.5C356.9 192.748 345.752 181.6 332 181.6C318.248 181.6 307.1 192.748 307.1 206.5C307.1 220.252 318.248 231.4 332 231.4Z" fill="#1A1A1A"/>
<path d="M335.1 194.9V215.6H331.2V198.1H326.8V194.9H335.1Z" fill="#EBEBEB"/>
</g>
<defs>
<clipPath id="clip0">
<rect width="507.8" height="347.5" fill="white"/>
</clipPath>
</defs>
</svg>
