<svg width="71" height="71" viewBox="0 0 71 71" fill="none" xmlns="http://www.w3.org/2000/svg">
<rect x="0.332031" y="0.785156" width="70" height="70" rx="10" fill="#F7F8FA"/>
<g clip-path="url(#clip0)">
<path d="M28.5689 48.41H24.0696M19.5703 26.8134V23.214C19.5703 23.214 19.5703 20.5144 22.2699 20.5144C24.9694 20.5144 23.1697 20.5144 25.8693 20.5144C28.5689 20.5144 28.5689 23.214 28.5689 23.214V26.8134H19.5703ZM19.5703 26.8134H24.0696H19.5703ZM19.5703 26.8134V48.41V26.8134ZM28.5689 26.8134H24.0696H28.5689ZM28.5689 26.8134V48.41V26.8134ZM24.0696 26.8134V48.41V26.8134ZM19.5703 48.41V50.2097L24.0696 56.5087L28.5689 50.2097V48.41H19.5703ZM19.5703 48.41H24.0696H19.5703Z" stroke="#E30713" stroke-width="1.2" stroke-linecap="round" stroke-linejoin="round"/>
<path fill-rule="evenodd" clip-rule="evenodd" d="M35.3672 15.2553C35.3672 15.0345 35.5462 14.8555 35.767 14.8555H51.4393C51.6601 14.8555 51.8392 15.0345 51.8392 15.2553V57.4556C51.8392 57.6764 51.6601 57.8555 51.4393 57.8555H35.767C35.5462 57.8555 35.3672 57.6764 35.3672 57.4556V50.4799H44.8076C45.139 50.4799 45.4076 50.2113 45.4076 49.8799C45.4076 49.5485 45.139 49.2799 44.8076 49.2799H35.3672V46.0326H38.7852C39.1166 46.0326 39.3852 45.764 39.3852 45.4326C39.3852 45.1012 39.1166 44.8326 38.7852 44.8326H35.3672V41.5238H38.7852C39.1166 41.5238 39.3852 41.2552 39.3852 40.9238C39.3852 40.5925 39.1166 40.3238 38.7852 40.3238H35.3672V36.9535H44.8076C45.139 36.9535 45.4076 36.6849 45.4076 36.3535C45.4076 36.0221 45.139 35.7535 44.8076 35.7535H35.3672V32.4447H38.7852C39.1166 32.4447 39.3852 32.1761 39.3852 31.8447C39.3852 31.5134 39.1166 31.2447 38.7852 31.2447H35.3672V28.0004H38.7852C39.1166 28.0004 39.3852 27.7318 39.3852 27.4004C39.3852 27.069 39.1166 26.8004 38.7852 26.8004H35.3672V23.4311H44.8076C45.139 23.4311 45.4076 23.1624 45.4076 22.8311C45.4076 22.4997 45.139 22.2311 44.8076 22.2311H35.3672V15.2553ZM35.767 13.8555C34.9939 13.8555 34.3672 14.4822 34.3672 15.2553V57.4556C34.3672 58.2287 34.9939 58.8555 35.767 58.8555H51.4393C52.2124 58.8555 52.8392 58.2287 52.8392 57.4556V15.2553C52.8392 14.4822 52.2124 13.8555 51.4393 13.8555H35.767Z" fill="#2A374A"/>
</g>
<defs>
<clipPath id="clip0">
<rect width="45" height="46" fill="white" transform="translate(12.832 12.7852)"/>
</clipPath>
</defs>
</svg>
