<svg xmlns="http://www.w3.org/2000/svg">

    <symbol id="icon1" viewBox="0 0 70 70" fill="none">
        <rect width="70" height="70" rx="10" fill="#F1F2F4"/>
        <path d="M35.0976 40.1503C39.361 40.1503 42.8173 36.6941 42.8173 32.4306C42.8173 28.1671 39.361 24.7109 35.0976 24.7109C30.8341 24.7109 27.3779 28.1671 27.3779 32.4306C27.3779 36.6941 30.8341 40.1503 35.0976 40.1503Z" stroke="#E30713" stroke-linecap="round" stroke-linejoin="round"/>
        <path d="M35.0978 36.842C37.534 36.842 39.509 34.867 39.509 32.4308C39.509 29.9945 37.534 28.0195 35.0978 28.0195C32.6615 28.0195 30.6865 29.9945 30.6865 32.4308C30.6865 34.867 32.6615 36.842 35.0978 36.842Z" stroke="#E30713" stroke-linecap="round" stroke-linejoin="round"/>
        <path d="M46.7952 44.1276L38.0216 52.9011C37.2462 53.6758 36.1949 54.1109 35.0988 54.1109C34.0028 54.1109 32.9515 53.6758 32.1761 52.9011L23.4005 44.1276C21.0871 41.8141 19.5117 38.8665 18.8735 35.6577C18.2352 32.4489 18.5629 29.1228 19.8149 26.1002C21.067 23.0776 23.1873 20.4941 25.9076 18.6765C28.6279 16.8588 31.8261 15.8887 35.0978 15.8887C38.3695 15.8887 41.5677 16.8588 44.288 18.6765C47.0084 20.4941 49.1286 23.0776 50.3807 26.1002C51.6327 29.1228 51.9604 32.4489 51.3222 35.6577C50.6839 38.8665 49.1085 41.8141 46.7952 44.1276V44.1276Z" stroke="#2A374A" stroke-linecap="round" stroke-linejoin="round"/>
    </symbol>

    <symbol id="icon2" viewBox="0 0 70 70" fill="none">
        <rect width="70" height="70" rx="10" fill="#F1F2F4"/>
        <path d="M34.7601 32.0423C37.8464 32.0423 40.3483 29.5612 40.3483 26.5007C40.3483 23.4401 37.8464 20.959 34.7601 20.959C31.6738 20.959 29.1719 23.4401 29.1719 26.5007C29.1719 29.5612 31.6738 32.0423 34.7601 32.0423Z" stroke="#1D1D1B"/>
        <path d="M30.3699 41.6935C31.7597 42.1096 33.2338 42.3333 34.7606 42.3333C36.4344 42.3333 38.0448 42.0645 39.5505 41.5679M23 36.7917C24.207 38.2593 25.6877 39.4967 27.3651 40.4274L23 36.7917ZM47.1295 36C45.9024 37.711 44.3232 39.1565 42.4967 40.2326L47.1295 36Z" stroke="#E30713" stroke-linecap="round"/>
        <path d="M34.7597 28.0827C35.6415 28.0827 36.3564 27.3738 36.3564 26.4993C36.3564 25.6249 35.6415 24.916 34.7597 24.916C33.8779 24.916 33.1631 25.6249 33.1631 26.4993C33.1631 27.3738 33.8779 28.0827 34.7597 28.0827Z" stroke="#E30713"/>
        <path d="M31.3694 30.459L24.3119 48.123C23.9871 48.936 24.3884 49.8562 25.2082 50.1783C26.028 50.5003 26.9558 50.1025 27.2807 49.2895L34.3382 31.6254" stroke="#1D1D1B"/>
        <path d="M25.2084 50.1777L24.3262 52.3858" stroke="#1D1D1B" stroke-linecap="round" stroke-linejoin="round"/>
        <path d="M38.5273 30.459L45.5848 48.123C45.9096 48.936 45.5084 49.8562 44.6886 50.1783C43.8688 50.5003 42.9409 50.1025 42.6161 49.2895L35.5586 31.6254" stroke="#1D1D1B"/>
        <path d="M44.6885 50.1777L45.5707 52.3857" stroke="#1D1D1B" stroke-linecap="round" stroke-linejoin="round"/>
        <path d="M34.7607 20.1667V17" stroke="#1D1D1B" stroke-linecap="round" stroke-linejoin="round"/>
    </symbol>

    <symbol id="icon3" viewBox="0 0 70 70" fill="none">
        <rect width="70" height="70" rx="10" fill="#F1F2F4"/>
        <path d="M39.2215 35.4468C39.3491 35.5434 39.4731 35.6467 39.589 35.763L51.9637 48.1382C53.3498 49.5243 53.3498 51.7734 51.9636 53.1595C50.577 54.5465 48.3279 54.5465 46.9413 53.1595L34.5676 40.7848C34.4957 40.7127 34.4316 40.6359 34.3669 40.5597M34.0442 32.0983L28.1204 26.1751C28.0465 26.1009 27.9676 26.0356 27.8863 25.9744C27.9558 25.8524 28.0234 25.7269 28.0865 25.5965C29.3376 25.8373 31.6247 23.4011 33.5672 21.4593L27.9083 15.7998C25.3778 18.3307 23.53 20.0292 23.7699 21.2802C23.1913 21.5629 22.6756 21.9085 22.3091 22.2755L21.512 23.0724C20.9945 23.5906 20.6823 24.2351 20.5709 24.9068C20.4936 24.9951 20.4149 25.0881 20.3367 25.1876L20.0396 25.5609C20.0313 25.5701 20.0058 25.6068 19.9987 25.6162L19.7294 25.9932C19.561 26.2179 19.4138 26.4619 19.2714 26.6975C19.2189 26.7849 19.1654 26.8725 19.1108 26.9599C19.1021 26.9749 19.0936 26.9897 19.0859 27.0047L18.9662 27.2301C18.8216 27.5012 18.6715 27.782 18.5431 28.0908L18.5224 28.14C18.371 28.4997 18.214 28.8722 18.1045 29.267L18.0515 29.4378C18.0081 29.5782 17.9641 29.7184 17.9236 29.8858L17.8136 30.4305C17.7316 30.7711 17.704 31.107 17.68 31.4046L17.664 31.6001C17.6235 31.9086 17.6353 32.1996 17.6463 32.4563C17.65 32.5423 17.6534 32.6266 17.6559 32.7404C17.6588 32.7877 17.6593 32.8339 17.6607 32.8794C17.6635 32.9941 17.6666 33.1244 17.6888 33.2614L17.7578 33.7034C17.7726 33.7889 17.7851 33.8718 17.7969 33.9514C17.8233 34.1309 17.8504 34.3165 17.9039 34.4927L18.1934 35.4972C18.2827 35.8025 18.5726 36.0046 18.8899 35.9825C19.0579 35.9708 19.2088 35.8981 19.3212 35.7855C19.4216 35.6852 19.4911 35.5533 19.5123 35.4044L19.6624 34.3832C19.6735 34.3022 19.7083 34.1835 19.7443 34.0579C19.77 33.9707 19.7949 33.8819 19.8142 33.8061L19.921 33.4249C19.9339 33.3733 19.9591 33.3231 19.9813 33.2716C20.0025 33.2237 20.0237 33.1745 20.0426 33.1259C20.0784 33.0449 20.1121 32.9639 20.1452 32.8807C20.211 32.7177 20.2732 32.5644 20.3681 32.4138C20.4094 32.3443 20.4477 32.2753 20.4869 32.2048C20.5858 32.0277 20.6798 31.8605 20.7914 31.7219C20.7985 31.7137 20.8048 31.7045 20.8122 31.6948L21.064 31.3476C21.1155 31.2823 21.1735 31.2206 21.2298 31.1584C21.2698 31.1146 21.3099 31.0705 21.3605 31.0126C21.5092 30.8338 21.6838 30.6779 21.8522 30.5244L21.9424 30.4434C22.0672 30.3275 22.2117 30.2184 22.3636 30.1032C22.4258 30.0567 22.4866 30.0106 22.5464 29.9651C22.6231 29.9154 22.6974 29.8657 22.7706 29.8165C22.9077 29.7239 23.0263 29.6438 23.1635 29.5724L23.462 29.4026L23.764 29.2545C23.8693 29.2 23.973 29.1581 24.0686 29.1195C24.1254 29.0959 24.1815 29.0731 24.2335 29.0505C24.2865 29.0322 24.3376 29.0123 24.3859 28.9945C24.4506 28.9709 24.5065 28.9482 24.5824 28.9285L24.6639 28.9101C24.7526 29.0538 24.8567 29.1905 24.9816 29.3153L30.8413 35.1752" stroke="#1D1D1B"/>
        <path d="M41.7421 32.8444C41.8542 32.7315 41.9602 32.6128 42.0578 32.4908L41.7421 32.8444ZM41.7421 32.8444L39.5504 35.1522L41.7421 32.8444ZM42.2342 32.023L41.8942 31.8947L41.6672 32.1786C41.5811 32.2862 41.4871 32.3916 41.3873 32.4921L41.3872 32.492L41.3796 32.5001L39.1879 34.8079L39.1878 34.8079L34.3342 39.9196L34.3332 39.9207L21.8011 53.0378L21.7929 53.0464L21.7916 53.0479C21.7915 53.048 21.7914 53.0481 21.7913 53.0483C21.0753 53.7641 20.2534 54.186 19.4678 54.2709C18.6967 54.3542 17.9232 54.1187 17.2508 53.4465C15.9326 52.128 16.0971 50.1694 17.5012 48.7629C17.5042 48.76 17.5067 48.7575 17.5086 48.7556L17.5142 48.7499L31.5166 35.2411L31.5174 35.2404L34.7185 32.1652L34.7195 32.1643L38.2987 28.7443L38.5377 28.5159L38.4211 28.2065C37.3912 25.4742 37.9735 22.271 40.1658 20.0787C41.7677 18.4769 43.9821 17.6698 46.2431 17.8645C46.3251 17.8718 46.3924 17.9251 46.4186 17.9974L46.419 17.9985C46.4461 18.0727 46.4278 18.1562 46.3713 18.2124L46.3707 18.213L42.4057 22.1783L42.2001 22.384L42.2772 22.6644L43.4159 26.8065L43.4932 27.0876L43.7758 27.1588L47.7912 28.171L48.0664 28.2404L48.267 28.0398L52.2323 24.0746C52.2324 24.0746 52.2325 24.0745 52.2325 24.0745C52.289 24.0183 52.3729 24 52.4471 24.0271L52.4483 24.0275C52.5216 24.0541 52.5738 24.1223 52.5802 24.1998L52.5803 24.2017C52.7758 26.4629 51.9684 28.6773 50.367 30.2793C48.1728 32.4732 44.9678 33.0541 42.2342 32.023Z" stroke="#E30713"/>
    </symbol>

    <symbol id="icon4" viewBox="0 0 70 70" fill="none">
        <rect width="70" height="70" rx="10" fill="#F1F2F4"/>
        <path d="M26.9513 42.1498C27.0466 42.2497 27.1628 42.3685 27.2982 42.5017C27.7085 42.9055 28.2971 43.4435 29.0104 43.98C30.419 45.0392 32.3941 46.1534 34.4806 46.1084C36.5555 46.0637 38.3449 45.0042 39.5868 44.0026C40.2129 43.4976 40.7138 42.9961 41.0586 42.6206C41.1755 42.4932 41.2748 42.3799 41.3553 42.2855C41.3826 42.2935 41.4104 42.3008 41.4387 42.3075M26.9513 42.1498L41.4387 42.3075M26.9513 42.1498C26.8218 42.2172 26.6824 42.2702 26.5345 42.3057L19.2009 44.2603L19.1938 44.2622L19.1866 44.2639C18.1984 44.4964 17.5 45.3782 17.5 46.3934V51.6558C17.5 52.1219 17.8778 52.4996 18.3438 52.4996H50.5957C51.0618 52.4996 51.4395 52.1219 51.4395 51.6558V46.3934V46.3933C51.4396 45.3781 50.7412 44.4963 49.7531 44.2638L49.8675 43.7774L49.7531 44.2638L41.4387 42.3075M26.9513 42.1498L41.4387 42.3075M41.4387 42.3075L41.4387 42.3075L41.4785 42.1382M41.4387 42.3075L41.4786 42.1381C41.4785 42.1381 41.4785 42.1382 41.4785 42.1382M41.4785 42.1382L41.5285 41.9255L41.4785 42.1382Z" stroke="#E30713"/>
        <path d="M25.5971 28.7228H25.1159C25.0803 28.6908 25.0388 28.6529 24.9925 28.6101C24.8323 28.4616 24.6169 28.2549 24.3949 28.0207C24.1719 27.7854 23.9487 27.529 23.7692 27.281C23.5834 27.0245 23.4718 26.8138 23.4328 26.6663C23.2072 25.8124 22.6343 21.1445 26.9383 17.8945L27.4875 17.4797L26.9233 17.0856L26.6352 16.8842C27.5302 16.5251 28.648 16.2219 29.794 15.9909C31.2903 15.6893 32.7853 15.5206 33.8088 15.5028L33.8001 15.0029L33.8088 15.5028C38.955 15.4133 40.2023 17.4679 40.3051 18.4625C40.4367 19.7356 40.2674 20.9021 39.4978 21.7553C38.7297 22.6069 37.2565 23.2648 34.5002 23.2697C30.6559 22.7903 29.0067 22.751 27.3717 23.8411C26.0409 24.7282 25.6438 26.1549 25.5598 27.2758C25.5173 27.8421 25.5522 28.3535 25.5971 28.7223C25.5971 28.7225 25.5971 28.7227 25.5971 28.7228Z" stroke="#2A374A"/>
        <path d="M25.822 25.718C25.7771 26.5292 25.8552 27.6171 26.2447 28.9896C26.1583 29.0458 26.0799 29.1177 26.0144 29.2051C25.5522 29.7999 25.8528 31.0676 26.0208 31.8154C26.1647 32.4617 26.3854 32.8801 26.6429 33.1408C27.2554 37.3029 31.0823 40.8499 34.156 40.7016C38.0661 40.5143 40.8375 36.4006 41.4596 33.1408C41.7171 32.8817 41.9649 32.3275 42.1137 31.6764C42.28 30.9286 42.4591 29.8015 41.9985 29.2051C41.9713 29.1739 41.7954 29.0162 41.765 28.9896C41.9758 28.2476 42.3073 27.2266 42.3309 26.0911C40.3835 20.8463 38.7808 23.0775 39.4092 21.8206C39.8964 20.8463 41.4596 19.872 39.8964 17.4361C39.8964 17.4361 40.8707 16.9492 42.8194 17.9234C42.8194 17.9234 45.7424 19.3849 44.768 24.7436C44.4741 26.3602 43.3065 27.6667 42.3322 28.1539" stroke="#2A374A" stroke-linecap="round"/>
        <path d="M46.2301 52.9989V49.1016H41.3584V52.9989" stroke="#E30713"/>
        <circle cx="37.4607" cy="29.615" r="0.974332" fill="#2A374A"/>
        <circle cx="31.615" cy="29.615" r="0.974332" fill="#2A374A"/>
    </symbol>

    <symbol id="icon5" viewBox="0 0 70 70" fill="none">
        <rect width="70" height="70" rx="10" fill="#F1F2F4"/>
        <path d="M36.3333 51V38.1667L27.1667 29L18 38.1667V51H27.1667H36.3333ZM36.3333 51H51V19.8333C51 19.3471 50.8068 18.8808 50.463 18.537C50.1192 18.1932 49.6529 18 49.1667 18H30.8333C30.3471 18 29.8808 18.1932 29.537 18.537C29.1932 18.8808 29 19.3471 29 19.8333V30.8333" stroke="#2A374A" stroke-linecap="round" stroke-linejoin="round"/>
        <path d="M36.333 25.334V25.3523" stroke="#E30713" stroke-width="2.75" stroke-linecap="round" stroke-linejoin="round"/>
        <path d="M43.667 25.334V25.3523" stroke="#E30713" stroke-width="2.75" stroke-linecap="round" stroke-linejoin="round"/>
        <path d="M43.667 32.666V32.6843" stroke="#E30713" stroke-width="2.75" stroke-linecap="round" stroke-linejoin="round"/>
        <path d="M43.667 40V40.0183" stroke="#E30713" stroke-width="2.75" stroke-linecap="round" stroke-linejoin="round"/>
        <path d="M24.5 51V42.5H30V51" stroke="#2A374A"/>
    </symbol>

    <symbol id="icon6" viewBox="0 0 70 70" fill="none">
        <rect width="70" height="70" rx="10" fill="#F1F2F4"/>
        <path d="M38 17H30C25.5817 17 22 20.5817 22 25V45C22 49.4183 25.5817 53 30 53H38C42.4183 53 46 49.4183 46 45V25C46 20.5817 42.4183 17 38 17Z" stroke="#2A374A" stroke-linecap="round" stroke-linejoin="round"/>
        <path d="M34 25V33" stroke="#E30713" stroke-linecap="round" stroke-linejoin="round"/>
        <path d="M31 17V34C31 35.6569 32.3431 37 34 37V37C35.6569 37 37 35.6569 37 34V17" stroke="#2A374A"/>
    </symbol>

</svg>
