<svg xmlns="http://www.w3.org/2000/svg">

    <symbol id="logo" viewBox="0 0 247 42" fill="none">
        <path d="M56.0696 16.6793V16.0592H55.4495H51.0764V13.2202H64.4337V16.0592H60.0628H59.4427V16.6793V28.7774H56.0696V16.6793Z" fill="#2A374A" stroke="#2A374A" stroke-width="1.24025"/>
        <path d="M72.0438 26.059H80.363V28.7774H68.1006V13.2202H80.2416V15.9389H72.0438H71.4237V16.559V19.1033V19.7234H72.0438H79.4098V22.157H72.0438H71.4237V22.7771V25.4389V26.059H72.0438Z" fill="#2A374A" stroke="#2A374A" stroke-width="1.24025"/>
        <path d="M89.0928 21.2001L89.3219 20.8571L89.0941 20.5132L84.2633 13.2219H88.0667L90.8298 17.6561L91.3535 18.4966L91.8809 17.6584L94.6728 13.2219H98.3529L93.5293 20.4639L93.3007 20.8071L93.5288 21.1506L98.5933 28.7791H94.7913L91.7887 24.0071L91.2658 23.1761L90.7401 24.0053L87.7135 28.7791H84.031L89.0928 21.2001Z" fill="#2A374A" stroke="#2A374A" stroke-width="1.24025"/>
        <path d="M105.921 23.0143V28.7774H102.55V13.2202H105.921V18.8877V19.5078H106.541H112.463H113.083V18.8877V13.2202H116.454V28.7774H113.083V23.0143V22.3942H112.463H106.541H105.921V23.0143Z" fill="#2A374A" stroke="#2A374A" stroke-width="1.24025"/>
        <path d="M133.684 21.0003C133.684 18.2938 131.73 15.8431 128.787 15.8431C125.86 15.8431 123.956 18.2527 123.956 21.0003C123.956 23.7056 125.912 26.1522 128.834 26.1522C131.78 26.1522 133.684 23.7504 133.684 21.0003ZM120.467 21.0003C120.467 16.5269 124.031 12.8848 128.834 12.8848C133.633 12.8848 137.15 16.479 137.15 21.0003C137.15 25.4713 133.586 29.1154 128.787 29.1154C123.984 29.1154 120.467 25.5217 120.467 21.0003Z" fill="#2A374A" stroke="#2A374A" stroke-width="1.24025"/>
        <path d="M144.556 23.0143V28.7774H141.183V13.2202H144.556V18.8877V19.5078H145.176H151.096H151.716V18.8877V13.2202H155.089V28.7774H151.716V23.0143V22.3942H151.096H145.176H144.556V23.0143Z" fill="#2A374A" stroke="#2A374A" stroke-width="1.24025"/>
        <path d="M163.271 28.7774H159.917V13.2202H163.243V22.0553V24.0668L164.376 22.4045L170.633 13.2202H173.985V28.7774H170.662V19.9427V17.9315L169.53 19.5935L163.271 28.7774Z" fill="#2A374A" stroke="#2A374A" stroke-width="1.24025"/>
        <path d="M182.186 25.0529V28.7774H178.815V13.2202H182.186V19.4149V21.1161L183.281 19.814L188.825 13.2202H192.641L187.237 19.4148L186.923 19.7754L187.192 20.1711L193.044 28.7774H189.01L185.012 22.8151L184.567 22.1514L184.035 22.7473L182.344 24.6397L182.186 24.8162V25.0529Z" fill="#2A374A" stroke="#2A374A" stroke-width="1.24025"/>
        <path d="M208.09 21.0003C208.09 18.2941 206.139 15.8431 203.192 15.8431C200.265 15.8431 198.367 18.2539 198.367 21.0003C198.367 23.7044 200.317 26.1522 203.239 26.1522C206.187 26.1522 208.09 23.7502 208.09 21.0003ZM194.877 21.0003C194.877 16.5264 198.437 12.8848 203.239 12.8848C208.039 12.8848 211.561 16.4794 211.561 21.0003C211.561 25.471 207.994 29.1154 203.192 29.1154C198.394 29.1154 194.877 25.5219 194.877 21.0003Z" fill="#2A374A" stroke="#2A374A" stroke-width="1.24025"/>
        <path d="M237.4 20.9089H236.78V21.529V25.4882V26.1083H237.4H239.801C240.646 26.1083 241.411 25.9166 241.976 25.4568C242.561 24.9808 242.848 24.2869 242.848 23.4741C242.848 22.7129 242.548 22.0455 241.981 21.5804C241.427 21.1261 240.674 20.9089 239.825 20.9089H237.4ZM236.78 13.2219V17.8793V18.4994H237.4H239.921C241.827 18.4994 243.409 18.9591 244.498 19.8035C245.567 20.6318 246.22 21.8728 246.22 23.5888C246.22 25.2431 245.63 26.516 244.621 27.3842C243.6 28.2621 242.087 28.7791 240.16 28.7791H233.409V13.2219H236.78Z" fill="#2A374A" stroke="#2A374A" stroke-width="1.24025"/>
        <path d="M42.1358 33.5983L33.8143 41.9973L3.03679 42.0001L0.53125 39.4701V8.39791L8.85194 0.000732422H39.6295L42.1358 2.52796V33.5983Z" fill="#E30713"/>
        <path d="M39.6299 0.000244141L30.2729 9.4458V23.2365L22.6094 12.5987H6.44895V15.9418H11.2117V28.6866L0.53125 39.4701V41.9995L3.0376 41.9974L14.8007 30.1207V15.9418H19.5617V29.3989H23.1056V18.7639L30.7721 29.3989H33.8148V10.928L42.1358 2.53022V0.000244141H39.6299Z" fill="white"/>
        <path d="M217.146 28.2083L217.146 28.2089C216.869 28.3865 216.311 28.6383 215.611 28.846C214.976 29.0346 214.265 29.1743 213.597 29.1964V26.4036C213.796 26.3596 213.997 26.2987 214.188 26.2278C214.589 26.0795 215.003 25.867 215.333 25.6082C216.092 25.0158 216.454 23.9638 216.644 22.9823C216.841 21.9659 216.885 20.8544 216.885 19.969V13.2202H228.579V28.7774H225.206V16.679V16.0589H224.586H220.607H219.987V16.679V19.729C219.987 21.6378 219.899 23.3694 219.49 24.8306C219.086 26.2727 218.378 27.4195 217.146 28.2083Z" fill="#2A374A" stroke="#2A374A" stroke-width="1.24025"/>
    </symbol>

    <symbol id="feedback" viewBox="0 0 22 16" fill="none">
        <path fill-rule="evenodd" clip-rule="evenodd" d="M18.1118 2H3.71102L10.9114 8.11087L18.1118 2ZM2.6001 3.68035V14H19.4001V3.52985L11.5585 10.1849L10.9114 10.734L10.2644 10.1849L2.6001 3.68035ZM0.600098 0H2.6001H19.4001H21.4001V2V14V16H19.4001H2.6001H0.600098V14V2V0Z" fill="#E30713"/>
    </symbol>

    <symbol id="intro-arrow" viewBox="0 0 29 47" fill="none">
        <path d="M27.9141 31.1102L14.9141 44.1102M14.9141 44.1102L1.91406 31.1102M14.9141 44.1102L14.9141 0.776855" stroke="white" stroke-width="3"/>
    </symbol>

    <symbol id="social-vk" viewBox="0 0 32 32" fill="none">
        <path fill-rule="evenodd" clip-rule="evenodd" d="M15.784 21.4243H16.936C16.936 21.4243 17.272 21.3763 17.464 21.1843C17.632 21.0163 17.632 20.6803 17.632 20.6803C17.632 20.6803 17.608 19.1443 18.328 18.9043C19.024 18.6883 19.936 20.3923 20.896 21.0403C21.616 21.5443 22.168 21.4243 22.168 21.4243L24.736 21.4003C24.736 21.4003 26.08 21.3283 25.432 20.2723C25.384 20.1763 25.072 19.4803 23.536 18.0643C21.928 16.5763 22.144 16.8163 24.088 14.2243C25.264 12.6643 25.744 11.7043 25.6 11.2723C25.456 10.8883 24.592 10.9843 24.592 10.9843L21.712 11.0083C21.712 11.0083 21.496 10.9843 21.328 11.0803C21.136 11.2003 21.04 11.4163 21.04 11.4163C21.04 11.4163 20.584 12.6403 19.984 13.6723C18.688 15.8563 18.184 15.9763 17.968 15.8323C17.488 15.5203 17.608 14.5603 17.608 13.8883C17.608 11.7763 17.92 10.8883 16.984 10.6723C16.672 10.6003 16.432 10.5523 15.64 10.5283C14.608 10.5283 13.744 10.5283 13.24 10.7683C12.904 10.9363 12.664 11.2963 12.808 11.2963C13 11.3203 13.432 11.4163 13.648 11.7283C13.936 12.1363 13.936 13.0243 13.936 13.0243C13.936 13.0243 14.104 15.5203 13.528 15.8323C13.144 16.0483 12.616 15.6163 11.464 13.6243C10.888 12.6163 10.432 11.4883 10.432 11.4883C10.432 11.4883 10.336 11.2723 10.192 11.1763C10.072 11.0803 9.83203 11.0083 9.56803 11.0083L7.00003 11.0323C7.00003 11.0323 6.59203 11.0323 6.44803 11.2243C6.30403 11.3923 6.44803 11.7043 6.44803 11.7043C6.44803 11.7043 8.60803 16.7203 11.032 19.2403C13.264 21.5923 15.784 21.4243 15.784 21.4243Z" fill="white"/>
        <rect x="0.5" y="0.5" width="31" height="31" stroke="white"/>
    </symbol>

    <symbol id="social-ok" viewBox="0 0 32 32" fill="none">
        <path d="M16.0001 6.3999C13.3361 6.3999 11.1521 8.5599 11.1521 11.2479C11.1521 13.9119 13.3121 16.0959 16.0001 16.0959C18.6641 16.0959 20.8481 13.9359 20.8481 11.2479C20.8481 8.5599 18.6641 6.3999 16.0001 6.3999ZM16.0001 13.6479C14.6561 13.6479 13.5761 12.5679 13.5761 11.2239C13.5761 9.8799 14.6561 8.7999 16.0001 8.7999C17.3441 8.7999 18.4241 9.8799 18.4241 11.2239C18.4241 12.5679 17.3441 13.6479 16.0001 13.6479Z" fill="white"/>
        <path d="M23.1281 16.8401C22.6961 16.0481 21.6881 15.7601 20.8961 16.2161C17.6081 18.0641 14.3921 18.0641 11.1041 16.2161C10.3121 15.7601 9.30406 16.0481 8.87206 16.8401C8.41606 17.6321 8.70406 18.6401 9.49606 19.0721C10.6241 19.7201 11.7761 20.1761 12.9281 20.4881L10.6001 22.8161C9.95206 23.4641 9.95206 24.4961 10.6001 25.1201C11.2481 25.7681 12.2801 25.7681 12.9041 25.1201L16.0001 22.0241L19.0961 25.1201C19.7441 25.7681 20.7761 25.7681 21.4001 25.1201C22.0481 24.4721 22.0481 23.4401 21.4001 22.8161L19.0721 20.4881C20.2241 20.1761 21.3761 19.7201 22.5041 19.0721C23.2961 18.6161 23.5841 17.6321 23.1281 16.8401Z" fill="white"/>
        <rect x="0.5" y="0.5" width="31" height="31" stroke="white"/>
    </symbol>

    <symbol id="social-yb" viewBox="0 0 32 32" fill="none">
        <path d="M25.7795 16.1507C25.5315 15.0732 24.6501 14.2784 23.5893 14.1601C21.0778 13.8795 18.5345 13.8782 16.0037 13.8795C13.4718 13.8782 10.929 13.8795 8.41672 14.1601C7.35643 14.2787 6.47559 15.0735 6.22786 16.1507C5.87478 17.6851 5.87054 19.3599 5.87054 20.9398C5.87054 22.5196 5.87054 24.1942 6.22362 25.7285C6.47136 26.8058 7.3522 27.6006 8.41302 27.7192C10.9248 28 13.4675 28.0011 15.9992 28C18.531 28.0013 21.0733 28 23.5858 27.7192C24.6461 27.6006 25.5275 26.8058 25.7752 25.7285C26.128 24.1942 26.1299 22.5196 26.1299 20.9398C26.1296 19.3597 26.1323 17.6851 25.7795 16.1507ZM11.6492 17.3399H10.1829V25.1314H8.82088V17.3399H7.38131V16.0636H11.6492V17.3399ZM15.3486 25.1317H14.1234V24.3946C13.6367 24.9525 13.1745 25.2246 12.7243 25.2246C12.3297 25.2246 12.0581 25.0647 11.9356 24.7225C11.8689 24.5182 11.8276 24.1948 11.8276 23.7178V18.3751H13.0517V23.3496C13.0517 23.6365 13.0517 23.7856 13.0628 23.8258C13.0922 24.0158 13.1851 24.1122 13.3492 24.1122C13.5948 24.1122 13.8516 23.9229 14.1231 23.5389V18.3751H15.3483L15.3486 25.1317ZM19.9997 23.1038C19.9997 23.7287 19.9576 24.1789 19.8759 24.4652C19.7123 24.9679 19.3849 25.2246 18.8979 25.2246C18.4622 25.2246 18.0419 24.9827 17.6325 24.4772V25.132H16.4083V16.0636H17.6325V19.0251C18.0279 18.5384 18.4477 18.2922 18.8979 18.2922C19.3849 18.2922 19.7126 18.5487 19.8759 19.0545C19.9582 19.3263 19.9997 19.7731 19.9997 20.4128V23.1038ZM24.6202 21.9765H22.1717V23.1742C22.1717 23.7996 22.3762 24.1119 22.7971 24.1119C23.0985 24.1119 23.274 23.9481 23.3439 23.6209C23.3553 23.5545 23.3714 23.2824 23.3714 22.7914H24.6204V22.9701C24.6204 23.3647 24.6053 23.6365 24.5942 23.7588C24.5532 24.0299 24.4569 24.2757 24.3084 24.4922C23.9693 24.983 23.467 25.2249 22.8275 25.2249C22.187 25.2249 21.6995 24.9943 21.3456 24.533C21.086 24.1948 20.9526 23.6622 20.9526 22.9442V20.5777C20.9526 19.8554 21.0709 19.3271 21.331 18.9857C21.6847 18.5233 22.1719 18.293 22.7973 18.293C23.4117 18.293 23.8987 18.5233 24.2417 18.9857C24.4982 19.3271 24.6207 19.8554 24.6207 20.5777V21.9765H24.6202Z" fill="white"/>
        <path d="M22.7862 19.394C22.377 19.394 22.1719 19.7066 22.1719 20.3313V20.9564H23.396V20.3313C23.3957 19.7066 23.1911 19.394 22.7862 19.394Z" fill="white"/>
        <path d="M18.2428 19.394C18.0411 19.394 17.8368 19.4893 17.6322 19.6918V23.8099C17.8365 24.0147 18.0411 24.1116 18.2428 24.1116C18.5959 24.1116 18.7753 23.8099 18.7753 23.1998V20.3159C18.7753 19.7066 18.5959 19.394 18.2428 19.394Z" fill="white"/>
        <path d="M18.9267 13.256C19.3779 13.256 19.8475 12.9818 20.34 12.4176V13.1624H21.5774V6.33398H20.34V11.5529C20.0658 11.9403 19.8059 12.132 19.5585 12.132C19.3928 12.132 19.2954 12.034 19.2684 11.8422C19.2533 11.8017 19.2533 11.6511 19.2533 11.3612V6.33398H18.0199V11.7334C18.0199 12.2156 18.0612 12.542 18.1295 12.7487C18.2539 13.0946 18.5283 13.256 18.9267 13.256Z" fill="white"/>
        <path d="M10.3128 9.45179V13.1628H11.6849V9.45179L13.3354 4H11.948L11.0118 7.59827L10.0378 4H8.59402C8.88332 4.84934 9.18425 5.70292 9.47354 6.55306C9.9137 7.83092 10.1884 8.79434 10.3128 9.45179Z" fill="white"/>
        <path d="M15.1744 13.2566C15.7942 13.2566 16.2759 13.0234 16.6176 12.5576C16.8773 12.2159 17.0017 11.6775 17.0017 10.9518V8.56072C17.0017 7.83074 16.8776 7.29716 16.6176 6.95228C16.2759 6.48513 15.7945 6.25195 15.1744 6.25195C14.5577 6.25195 14.0762 6.48513 13.7337 6.95228C13.4709 7.29716 13.3465 7.83074 13.3465 8.56072V10.9518C13.3465 11.6775 13.4709 12.2159 13.7337 12.5576C14.076 13.0234 14.5577 13.2566 15.1744 13.2566ZM14.5839 8.31272C14.5839 7.68094 14.7755 7.36597 15.1744 7.36597C15.5732 7.36597 15.7643 7.68067 15.7643 8.31272V11.185C15.7643 11.8168 15.5732 12.1328 15.1744 12.1328C14.7755 12.1328 14.5839 11.8168 14.5839 11.185V8.31272Z" fill="white"/>
        <rect x="0.5" y="0.5" width="31" height="31" stroke="white"/>
    </symbol>

    <symbol id="social-im" viewBox="0 0 32 32" fill="none">
        <path d="M20.9996 6H10.9999C8.25019 6 6 8.25019 6 10.9999V21.0001C6 23.7491 8.25019 26 10.9999 26H20.9996C23.7493 26 25.9995 23.7491 25.9995 21.0001V10.9999C25.9995 8.25019 23.7493 6 20.9996 6ZM24.3328 21.0001C24.3328 22.8376 22.8381 24.3333 20.9996 24.3333H10.9999C9.16218 24.3333 7.66671 22.8376 7.66671 21.0001V10.9999C7.66671 9.16193 9.16218 7.66671 10.9999 7.66671H20.9996C22.8381 7.66671 24.3328 9.16193 24.3328 10.9999V21.0001Z" fill="white"/>
        <path d="M21.4168 11.8334C22.1072 11.8334 22.6668 11.2738 22.6668 10.5835C22.6668 9.89313 22.1072 9.3335 21.4168 9.3335C20.7265 9.3335 20.1669 9.89313 20.1669 10.5835C20.1669 11.2738 20.7265 11.8334 21.4168 11.8334Z" fill="white"/>
        <path d="M15.9997 10.999C13.2377 10.999 10.9998 13.2372 10.9998 15.9989C10.9998 18.7596 13.2377 20.9993 15.9997 20.9993C18.7608 20.9993 20.9996 18.7596 20.9996 15.9989C20.9996 13.2372 18.7608 10.999 15.9997 10.999ZM15.9997 19.3326C14.159 19.3326 12.6665 17.8401 12.6665 15.9989C12.6665 14.1577 14.159 12.6657 15.9997 12.6657C17.8404 12.6657 19.3328 14.1577 19.3328 15.9989C19.3328 17.8401 17.8404 19.3326 15.9997 19.3326Z" fill="white"/>
        <rect x="0.5" y="0.5" width="31" height="31" stroke="white"/>
    </symbol>

    <symbol id="social-tt" viewBox="0 0 32 32" fill="none">
        <path d="M23.0688 12.0203C23.0547 12.0203 21.6297 11.9922 20.4157 11.1016C19.3563 10.3281 18.9907 8.64531 18.9344 8.02188V7.9375H16.3563V19.0609C16.3563 20.3969 15.2688 21.4844 13.9329 21.4844C12.5969 21.4844 11.5094 20.3969 11.5094 19.0609C11.5094 17.725 12.5969 16.6375 13.9329 16.6375H14.7485V14.0594H13.9329C11.1766 14.0594 8.9313 16.3047 8.9313 19.0609C8.9313 21.8172 11.1766 24.0625 13.9329 24.0625C16.6891 24.0625 18.9344 21.8172 18.9344 19.0609V13.2109C20.8047 14.5563 22.8297 14.5984 23.0641 14.5984V12.0203H23.0688Z" fill="white"/>
        <rect x="0.5" y="0.5" width="31" height="31" stroke="white"/>
    </symbol>

    <symbol id="social-fb" viewBox="0 0 32 32" fill="none">
        <path d="M13.6958 17.2483C13.6238 17.2483 12.0398 17.2483 11.3198 17.2483C10.9358 17.2483 10.8158 17.1043 10.8158 16.7443C10.8158 15.7843 10.8158 14.8003 10.8158 13.8403C10.8158 13.4563 10.9598 13.3363 11.3198 13.3363H13.6958C13.6958 13.2643 13.6958 11.8723 13.6958 11.2243C13.6958 10.2643 13.8638 9.35232 14.3438 8.51232C14.8478 7.64832 15.5678 7.07232 16.4798 6.73632C17.0798 6.52032 17.6798 6.42432 18.3278 6.42432H20.6798C21.0158 6.42432 21.1598 6.56832 21.1598 6.90432V9.64032C21.1598 9.97632 21.0158 10.1203 20.6798 10.1203C20.0318 10.1203 19.3838 10.1203 18.7358 10.1443C18.0878 10.1443 17.7518 10.4563 17.7518 11.1283C17.7278 11.8483 17.7518 12.5443 17.7518 13.2883H20.5358C20.9198 13.2883 21.0638 13.4323 21.0638 13.8163V16.7203C21.0638 17.1043 20.9438 17.2243 20.5358 17.2243C19.6718 17.2243 17.8238 17.2243 17.7518 17.2243V25.0483C17.7518 25.4563 17.6318 25.6003 17.1998 25.6003C16.1918 25.6003 15.2078 25.6003 14.1998 25.6003C13.8398 25.6003 13.6958 25.4563 13.6958 25.0963C13.6958 22.5763 13.6958 17.3203 13.6958 17.2483Z" fill="white"/>
        <rect x="0.5" y="0.5" width="31" height="31" stroke="white"/>
    </symbol>

    <symbol id="optimal-logo" viewBox="0 0 107 33" fill="none">
        <path d="M24.9771 19.1691C22.7928 19.1691 20.9184 18.4078 19.4115 16.9009C17.8835 15.3729 17.1117 13.5142 17.1117 11.372C17.1117 9.20873 17.8835 7.33427 19.4115 5.80635C20.9184 4.29943 22.7928 3.53809 24.9771 3.53809C27.1613 3.53809 29.0306 4.30468 30.5427 5.80635C32.0444 7.36052 32.811 9.22973 32.811 11.372C32.811 13.5142 32.0444 15.3729 30.5427 16.9009C29.0358 18.4025 27.1613 19.1691 24.9771 19.1691ZM24.9771 6.67795C23.6802 6.67795 22.5776 7.1295 21.7007 8.0221C20.7871 8.94095 20.3198 10.0646 20.3198 11.3667C20.3198 12.6426 20.7766 13.7452 21.6692 14.6378C22.5881 15.5567 23.7012 16.024 24.9771 16.024C26.253 16.024 27.3609 15.5567 28.2797 14.6378C29.1776 13.7452 29.6291 12.6479 29.6291 11.3667C29.6291 10.0488 29.1723 8.91995 28.2797 8.02735C27.3871 7.1295 26.274 6.67795 24.9771 6.67795Z" fill="white"/>
        <path d="M7.87064 19.1701C5.68639 19.1701 3.81193 18.4088 2.30501 16.9018C0.777088 15.3739 0 13.5152 0 11.373C0 9.20971 0.777088 7.33525 2.30501 5.80732C3.81193 4.3004 5.68114 3.53906 7.87064 3.53906C10.0601 3.53906 11.9294 4.30565 13.4363 5.80732C14.9432 7.35625 15.7045 9.23071 15.7045 11.373C15.7045 13.5152 14.9379 15.3739 13.4363 16.9018C11.9294 18.4035 10.0549 19.1701 7.87064 19.1701ZM7.87064 6.67892C6.57374 6.67892 5.47112 7.13047 4.59427 8.02308C3.68067 8.94193 3.21336 10.0656 3.21336 11.3677C3.21336 12.6436 3.67017 13.7462 4.56277 14.6388C5.48162 15.5577 6.59474 16.025 7.87064 16.025C9.14653 16.025 10.2597 15.5577 11.1785 14.6388C12.0764 13.7462 12.5279 12.6436 12.5279 11.3677C12.5279 10.0498 12.0764 8.92618 11.1785 8.02832C10.2807 7.13047 9.16754 6.67892 7.87064 6.67892Z" fill="white"/>
        <path d="M24.9772 29.4556C22.7982 29.4556 20.929 28.689 19.4116 27.1821C18.855 26.6255 18.3929 25.9797 17.9886 25.2184L20.992 24.1578C21.244 24.4465 21.4383 24.6933 21.6746 24.9296C22.5882 25.8485 23.7013 26.3105 24.9772 26.3105C26.2531 26.3105 27.3662 25.8432 28.2798 24.9296C29.1042 24.1053 29.5557 23.1024 29.624 21.9473L32.8741 22.0155C32.7218 24.079 31.9132 25.7959 30.5376 27.1821C29.0359 28.689 27.1614 29.4556 24.9772 29.4556Z" fill="white"/>
        <path d="M8.96812 12.7792C9.94473 12.2857 10.3438 11.0938 9.85022 10.1172C9.67169 9.76539 9.40392 9.49236 9.08888 9.30859C9.02587 9.65513 8.81585 9.96492 8.47981 10.1329C7.91274 10.4165 7.22492 10.1907 6.94139 9.62363C6.90988 9.56063 6.88888 9.50287 6.87313 9.43986C6.13279 10.0069 5.87552 11.036 6.31132 11.9024C6.79962 12.8738 7.99151 13.2675 8.96812 12.7792Z" fill="white"/>
        <path d="M25.7334 12.7792C26.71 12.2857 27.109 11.0938 26.6155 10.1172C26.437 9.76539 26.1692 9.49236 25.8541 9.30859C25.7911 9.65513 25.5811 9.96492 25.2451 10.1329C24.678 10.4165 23.9902 10.1907 23.7066 9.62363C23.6751 9.56063 23.6541 9.50287 23.6384 9.43986C22.8981 10.0069 22.6408 11.036 23.0766 11.9024C23.5596 12.8738 24.7515 13.2675 25.7334 12.7792Z" fill="white"/>
        <path d="M39.8572 8.24885C39.8625 6.92045 40.314 5.80733 41.2119 4.91472C42.1255 3.99587 43.2754 3.53906 44.6668 3.53906C46.0582 3.54431 47.2081 4.00637 48.1164 4.93048C49.0143 5.83358 49.4606 6.9467 49.4553 8.2751C49.4501 9.614 48.9985 10.7324 48.1007 11.6302C47.1871 12.5386 46.0372 12.9901 44.6458 12.9901C43.2544 12.9849 42.1045 12.5281 41.1961 11.6197C40.2983 10.7114 39.852 9.58775 39.8572 8.24885ZM42.8763 10.0866C43.3489 10.5801 43.9369 10.8269 44.651 10.8321C45.3441 10.8321 45.9269 10.5906 46.41 10.0971C46.893 9.5825 47.1345 8.97343 47.1398 8.2751C47.1398 7.57152 46.8983 6.96771 46.4205 6.46365C45.9374 5.97009 45.3546 5.72332 44.6615 5.71806C43.9474 5.71806 43.3541 5.95959 42.8816 6.45315C42.409 6.9362 42.1727 7.53477 42.1727 8.25935C42.1727 8.96818 42.409 9.57725 42.8763 10.0866Z" fill="white"/>
        <path d="M56.6067 3.58598C57.8668 3.59123 58.9222 4.04804 59.7623 4.95639C60.5919 5.85949 61.0067 6.97262 61.0067 8.30102C61.0014 9.61892 60.5761 10.732 59.7308 11.6351C58.8854 12.5435 57.83 12.9951 56.5699 12.9951C55.462 12.9951 54.5274 12.575 53.7608 11.7402L53.7503 16.4604L51.4296 16.4552L51.4558 3.80651L53.7608 3.81176V4.91438C54.5274 4.02178 55.4778 3.58073 56.6067 3.58598ZM56.1814 10.8686C56.9164 10.8686 57.515 10.627 57.9771 10.1335C58.4391 9.63992 58.6701 9.03085 58.6701 8.31152C58.6701 7.58694 58.4444 6.97786 57.9823 6.48431C57.5255 5.99075 56.9269 5.74397 56.1919 5.73872C55.4673 5.73872 54.874 5.98026 54.4119 6.47381C53.9499 6.96737 53.7188 7.57644 53.7188 8.29577C53.7188 9.02035 53.9446 9.62942 54.4067 10.123C54.8635 10.6218 55.4568 10.8686 56.1814 10.8686Z" fill="white"/>
        <path d="M68.6674 10.4539L69.3552 12.2811C68.6096 12.7746 67.7275 13.0162 66.7036 13.0162C65.6745 13.0162 64.8922 12.7116 64.3671 12.113C63.8421 11.5145 63.5795 10.6324 63.5848 9.472L63.5953 5.77033L62.1304 5.76508L62.1356 3.82236L63.6163 3.82761L63.6215 1.40183L65.9266 0.65625L65.9213 3.83286L68.8826 3.83811L68.8774 5.78083L65.9161 5.77558L65.9108 9.33023C65.9108 10.3856 66.3308 10.9107 67.1762 10.9107C67.633 10.9107 68.1318 10.7584 68.6674 10.4539Z" fill="white"/>
        <path d="M73.7184 1.41766C73.7184 1.82196 73.5819 2.16325 73.3036 2.43628C73.0305 2.70931 72.6893 2.84582 72.285 2.84582C71.8807 2.84582 71.5394 2.7093 71.2664 2.43102C70.9933 2.15799 70.8568 1.81671 70.8568 1.41241C70.8568 1.00812 70.9933 0.672076 71.2716 0.409546C71.5446 0.136515 71.8859 0 72.2902 0C72.6945 0 73.0358 0.136512 73.3088 0.414794C73.5819 0.677323 73.7184 1.01336 73.7184 1.41766ZM73.4348 3.84869L73.4138 12.8115L71.0931 12.8062L71.1141 3.84343L73.4348 3.84869Z" fill="white"/>
        <path d="M86.9237 3.63377C88 3.63377 88.8716 3.97506 89.5385 4.64188C90.2263 5.31396 90.5728 6.24331 90.5676 7.44045L90.5571 12.8538L88.2363 12.8486L88.2468 7.86575C88.2468 7.19892 88.0893 6.67911 87.7638 6.31682C87.4382 5.95453 87.0077 5.77076 86.4564 5.77076C85.863 5.77076 85.3852 5.96503 85.0229 6.35357C84.6607 6.74212 84.4769 7.26718 84.4769 7.92351L84.4664 12.8433L82.1456 12.8381L82.1561 7.871C82.1561 7.21467 81.9986 6.69486 81.6731 6.32207C81.3475 5.94928 80.9117 5.76026 80.3499 5.76026C79.7776 5.76026 79.3103 5.95453 78.9428 6.34833C78.5752 6.74212 78.3914 7.26718 78.3862 7.92875L78.3757 12.8328L76.0549 12.8276L76.0759 3.8648L78.3442 3.87004L78.3389 5.15119C78.591 4.67864 78.9638 4.30584 79.4626 4.02756C79.9561 3.74928 80.4917 3.61801 81.0745 3.62851C81.6468 3.62851 82.1666 3.77028 82.6444 4.04331C83.1222 4.31635 83.474 4.71014 83.705 5.2142C84.0358 4.72064 84.4874 4.33735 85.0544 4.05907C85.632 3.77028 86.2516 3.63377 86.9237 3.63377Z" fill="white"/>
        <path d="M99.7822 4.97797V3.90686L101.987 3.9121L101.966 12.8749L99.7612 12.8696V11.8353C98.9894 12.6648 98.039 13.0796 96.8944 13.0796C95.5975 13.0744 94.5369 12.6228 93.7073 11.725C92.8777 10.8219 92.4629 9.69301 92.4629 8.3331C92.4681 6.9837 92.8882 5.87057 93.7388 4.99897C94.5841 4.11162 95.6447 3.67058 96.9154 3.67583C98.0443 3.67583 98.9946 4.11162 99.7822 4.97797ZM99.8085 8.38036C99.8085 7.67678 99.5722 7.06771 99.0891 6.55315C98.6166 6.04909 98.0233 5.79182 97.2987 5.79182C96.5636 5.79182 95.9598 6.04384 95.4872 6.54265C95.0252 7.04671 94.7942 7.65578 94.7942 8.36461C94.7942 9.08919 95.0252 9.70351 95.4977 10.2076C95.9703 10.7116 96.5636 10.9689 97.2882 10.9689C98.0128 10.9689 98.6113 10.7221 99.0839 10.2181C99.5669 9.70876 99.8085 9.09444 99.8085 8.38036Z" fill="white"/>
        <path d="M106.802 0.389037L106.776 12.8907L104.455 12.8855L104.482 0.383789L106.802 0.389037Z" fill="white"/>
        <path d="M47.1608 21.2283V20.2412L49.2978 20.2465L49.282 28.3219C49.2768 29.771 48.8147 30.9104 47.8906 31.74C46.956 32.5801 45.7589 33.0002 44.3045 33.0002C42.7555 32.9949 41.3904 32.5591 40.1932 31.6928L41.1016 29.9496C42.1307 30.6531 43.1756 31.0049 44.2414 31.0102C45.1078 31.0102 45.7904 30.7844 46.2892 30.3224C46.788 29.8603 47.04 29.267 47.04 28.5319V28.0698C46.3469 28.8364 45.4281 29.2197 44.2729 29.2145C42.955 29.2092 41.8839 28.7734 41.0491 27.9071C40.2195 27.0407 39.8047 25.9434 39.8047 24.615C39.8099 23.2866 40.251 22.1892 41.1278 21.3123C42.0047 20.4355 43.0916 19.9997 44.3885 20.0049C45.5016 20.0102 46.4204 20.4145 47.1608 21.2283ZM42.157 24.6412C42.157 25.3868 42.388 25.9959 42.8605 26.4684C43.3436 26.9515 43.9317 27.193 44.6352 27.1983C45.3388 27.1983 45.9321 26.962 46.4152 26.4789C46.8877 25.9959 47.124 25.392 47.124 24.657C47.124 23.9324 46.893 23.3338 46.4204 22.8613C45.9374 22.3782 45.3493 22.1367 44.6457 22.1314C43.9422 22.1314 43.3488 22.3677 42.8658 22.8508C42.3932 23.3181 42.157 23.9166 42.157 24.6412Z" fill="white"/>
        <path d="M54.0969 29.2248L51.7761 29.2196L51.7971 20.2568L54.0181 20.262L54.0129 21.4644C54.5537 20.4983 55.378 20.0205 56.4859 20.0205C56.8482 20.0205 57.2105 20.0888 57.5728 20.22L57.368 22.441C56.9742 22.3203 56.6172 22.2573 56.3021 22.2573C55.6196 22.2573 55.0892 22.483 54.6955 22.9346C54.3069 23.3914 54.1074 24.0635 54.1074 24.9666L54.0969 29.2248Z" fill="white"/>
        <path d="M58.5074 24.741C58.5127 23.4126 58.9642 22.2995 59.8621 21.4069C60.7757 20.488 61.9256 20.0312 63.3222 20.0312C64.7137 20.0365 65.8635 20.4986 66.7719 21.4227C67.6697 22.3258 68.116 23.4389 68.1108 24.7673C68.1055 26.1062 67.654 27.2246 66.7561 28.1224C65.8425 29.0308 64.6927 29.4823 63.3012 29.4823C61.9098 29.4771 60.76 29.0203 59.8516 28.1119C58.9537 27.1983 58.5074 26.0799 58.5074 24.741ZM61.5318 26.5735C62.0043 27.0671 62.5924 27.3138 63.3065 27.3191C63.9996 27.3191 64.5824 27.0775 65.0654 26.584C65.5485 26.0694 65.79 25.4604 65.7953 24.7568C65.7953 24.0532 65.5538 23.4494 65.0759 22.9453C64.5929 22.4518 64.0101 22.205 63.317 22.1997C62.6029 22.1997 62.0096 22.4413 61.537 22.9348C61.0645 23.4179 60.8282 24.0165 60.8282 24.741C60.823 25.4604 61.0592 26.0694 61.5318 26.5735Z" fill="white"/>
        <path d="M77.105 28.4366C76.3751 29.135 75.367 29.4868 74.0859 29.4815C72.8047 29.4763 71.7966 29.1245 71.072 28.4156C70.3422 27.7068 69.9799 26.7249 69.9852 25.4753L69.9957 20.293L72.3164 20.2982L72.3059 25.4806C72.3059 26.0529 72.4634 26.5044 72.7785 26.8457C73.0935 27.187 73.5346 27.355 74.0911 27.3603C74.6529 27.3603 75.0887 27.1923 75.409 26.851C75.7293 26.5097 75.8868 26.0581 75.8868 25.4858L75.8973 20.3035L78.2181 20.3087L78.2076 25.4911C78.2023 26.7565 77.8348 27.7331 77.105 28.4366Z" fill="white"/>
        <path d="M85.779 20.0997C87.0392 20.1049 88.0945 20.5617 88.9346 21.4701C89.7642 22.3732 90.179 23.4863 90.179 24.8147C90.1738 26.1326 89.7485 27.2457 88.9031 28.1488C88.0578 29.0572 87.0024 29.5087 85.7423 29.5087C84.6344 29.5087 83.6998 29.0887 82.9332 28.2538L82.9227 32.9741L80.6019 32.9689L80.6282 20.3202L82.9332 20.3254V21.4281C83.6998 20.5355 84.6501 20.0944 85.779 20.0997ZM85.3537 27.3822C86.0888 27.3822 86.6874 27.1407 87.1494 26.6471C87.6115 26.1536 87.8425 25.5445 87.8425 24.8252C87.8425 24.1006 87.6167 23.4915 87.1547 22.998C86.6979 22.5044 86.0993 22.2576 85.3642 22.2524C84.6396 22.2524 84.0463 22.4939 83.5843 22.9875C83.1222 23.481 82.8912 24.0901 82.8912 24.8094C82.8912 25.534 83.117 26.1431 83.579 26.6366C84.0358 27.1355 84.6291 27.3822 85.3537 27.3822Z" fill="white"/>
    </symbol>

    <symbol id="docs-arrow" viewBox="0 0 36 22" fill="none">
        <path d="M24.1945 0.785644L34.3945 10.7856M34.3945 10.7856L24.1945 20.7856M34.3945 10.7856L0.394531 10.7856" stroke="#E30713" stroke-width="2"/>
    </symbol>

    <symbol id="doc-1" viewBox="0 0 71 71" fill="none">
        <rect x="0.332031" y="0.785156" width="70" height="70" rx="10" fill="#F7F8FA"/>
        <g clip-path="url(#clip0)">
            <path d="M28.5689 48.41H24.0696M19.5703 26.8134V23.214C19.5703 23.214 19.5703 20.5144 22.2699 20.5144C24.9694 20.5144 23.1697 20.5144 25.8693 20.5144C28.5689 20.5144 28.5689 23.214 28.5689 23.214V26.8134H19.5703ZM19.5703 26.8134H24.0696H19.5703ZM19.5703 26.8134V48.41V26.8134ZM28.5689 26.8134H24.0696H28.5689ZM28.5689 26.8134V48.41V26.8134ZM24.0696 26.8134V48.41V26.8134ZM19.5703 48.41V50.2097L24.0696 56.5087L28.5689 50.2097V48.41H19.5703ZM19.5703 48.41H24.0696H19.5703Z" stroke="#E30713" stroke-width="1.2" stroke-linecap="round" stroke-linejoin="round"/>
            <path fill-rule="evenodd" clip-rule="evenodd" d="M35.3672 15.2553C35.3672 15.0345 35.5462 14.8555 35.767 14.8555H51.4393C51.6601 14.8555 51.8392 15.0345 51.8392 15.2553V57.4556C51.8392 57.6764 51.6601 57.8555 51.4393 57.8555H35.767C35.5462 57.8555 35.3672 57.6764 35.3672 57.4556V50.4799H44.8076C45.139 50.4799 45.4076 50.2113 45.4076 49.8799C45.4076 49.5485 45.139 49.2799 44.8076 49.2799H35.3672V46.0326H38.7852C39.1166 46.0326 39.3852 45.764 39.3852 45.4326C39.3852 45.1012 39.1166 44.8326 38.7852 44.8326H35.3672V41.5238H38.7852C39.1166 41.5238 39.3852 41.2552 39.3852 40.9238C39.3852 40.5925 39.1166 40.3238 38.7852 40.3238H35.3672V36.9535H44.8076C45.139 36.9535 45.4076 36.6849 45.4076 36.3535C45.4076 36.0221 45.139 35.7535 44.8076 35.7535H35.3672V32.4447H38.7852C39.1166 32.4447 39.3852 32.1761 39.3852 31.8447C39.3852 31.5134 39.1166 31.2447 38.7852 31.2447H35.3672V28.0004H38.7852C39.1166 28.0004 39.3852 27.7318 39.3852 27.4004C39.3852 27.069 39.1166 26.8004 38.7852 26.8004H35.3672V23.4311H44.8076C45.139 23.4311 45.4076 23.1624 45.4076 22.8311C45.4076 22.4997 45.139 22.2311 44.8076 22.2311H35.3672V15.2553ZM35.767 13.8555C34.9939 13.8555 34.3672 14.4822 34.3672 15.2553V57.4556C34.3672 58.2287 34.9939 58.8555 35.767 58.8555H51.4393C52.2124 58.8555 52.8392 58.2287 52.8392 57.4556V15.2553C52.8392 14.4822 52.2124 13.8555 51.4393 13.8555H35.767Z" fill="#2A374A"/>
        </g>
        <defs>
            <clipPath id="clip0">
                <rect width="45" height="46" fill="white" transform="translate(12.832 12.7852)"/>
            </clipPath>
        </defs>
    </symbol>

    <symbol id="doc-2" viewBox="0 0 71 71" fill="none">
        <rect x="0.332031" y="0.785156" width="70" height="70" rx="10" fill="#F7F8FA"/>
        <path d="M46.96 52.4327L51.7572 52.1989C52.1309 52.1807 52.353 51.7735 52.1659 51.4495L46.5434 41.7112M46.96 52.4327L44.359 56.4703C44.1563 56.7848 43.6927 56.7735 43.5056 56.4495L37.5859 46.1963M46.96 52.4327L44.707 48.4102" stroke="#2A374A"/>
        <path d="M33.0742 46.1963L27.1545 56.4495C26.9675 56.7735 26.5038 56.7848 26.3012 56.4703L23.8393 52.6488C23.752 52.5132 23.6045 52.428 23.4434 52.4202L18.903 52.1989C18.5292 52.1807 18.3072 51.7735 18.4943 51.4495L24.1167 41.7112" stroke="#2A374A"/>
        <path d="M34.2528 15.1786C34.8731 14.6497 35.7858 14.6497 36.4061 15.1786C37.1658 15.8265 38.2245 15.9941 39.1473 15.6128C39.9007 15.3014 40.7687 15.5835 41.1952 16.2782C41.7176 17.1291 42.6726 17.6157 43.668 17.5382C44.4808 17.4749 45.2191 18.0113 45.4101 18.8039C45.644 19.7746 46.4019 20.5325 47.3726 20.7663C48.1651 20.9573 48.7015 21.6956 48.6382 22.5084C48.5607 23.5039 49.0473 24.4589 49.8982 24.9813C50.593 25.4078 50.875 26.2758 50.5636 27.0292C50.1823 27.9519 50.35 29.0106 50.9978 29.7704C51.5267 30.3907 51.5267 31.3033 50.9978 31.9237C50.35 32.6834 50.1823 33.7421 50.5636 34.6648C50.875 35.4183 50.593 36.2862 49.8982 36.7128C49.0473 37.2351 48.5607 38.1901 48.6382 39.1856C48.7015 39.9984 48.1651 40.7367 47.3726 40.9277C46.4019 41.1615 45.644 41.9194 45.4101 42.8901C45.2191 43.6827 44.4808 44.2191 43.668 44.1558C42.6726 44.0783 41.7176 44.5649 41.1952 45.4158C40.7687 46.1105 39.9007 46.3926 39.1473 46.0812C38.2245 45.6999 37.1658 45.8675 36.4061 46.5154C35.7858 47.0443 34.8731 47.0443 34.2528 46.5154C33.493 45.8675 32.4344 45.6999 31.5116 46.0812C30.7582 46.3926 29.8902 46.1105 29.4637 45.4158C28.9413 44.5649 27.9863 44.0783 26.9908 44.1558C26.1781 44.2191 25.4397 43.6827 25.2488 42.8901C25.0149 41.9194 24.257 41.1615 23.2863 40.9277C22.4938 40.7367 21.9573 39.9984 22.0206 39.1856C22.0981 38.1901 21.6115 37.2351 20.7606 36.7128C20.0659 36.2862 19.7839 35.4183 20.0952 34.6648C20.4766 33.7421 20.3089 32.6834 19.6611 31.9237C19.1321 31.3033 19.1321 30.3907 19.6611 29.7704C20.3089 29.0106 20.4766 27.9519 20.0952 27.0292C19.7839 26.2758 20.0659 25.4078 20.7606 24.9813C21.6115 24.4589 22.0981 23.5039 22.0206 22.5084C21.9573 21.6956 22.4938 20.9573 23.2863 20.7663C24.257 20.5325 25.0149 19.7746 25.2488 18.8039C25.4397 18.0113 26.1781 17.4749 26.9908 17.5382C27.9863 17.6157 28.9413 17.1291 29.4637 16.2782C29.8902 15.5835 30.7582 15.3014 31.5116 15.6128C32.4344 15.9941 33.493 15.8265 34.2528 15.1786Z" stroke="#2A374A"/>
        <circle cx="35.332" cy="30.8466" r="11.9101" stroke="#2A374A"/>
        <path d="M35.3258 23.9252L36.8901 27.793L37.3536 27.6056L36.8901 27.793C37.0333 28.1473 37.3659 28.3889 37.747 28.4157L41.9089 28.7081L38.7138 31.391C38.4211 31.6367 38.2941 32.0277 38.3864 32.3984L39.3944 36.447L35.8555 34.2373C35.5314 34.0349 35.1203 34.0349 34.7962 34.2373L31.2573 36.447L32.2652 32.3984C32.3576 32.0277 32.2305 31.6367 31.9379 31.391L28.7427 28.7081L32.9047 28.4157C33.2858 28.3889 33.6184 28.1473 33.7616 27.793L35.3258 23.9252Z" stroke="#E30713"/>
    </symbol>

    <symbol id="doc-3" viewBox="0 0 71 71" fill="none">
        <rect x="0.332031" y="0.113281" width="70" height="70" rx="10" fill="#F7F8FA"/>
        <g clip-path="url(#clip0)">
            <path d="M27.8694 32.9324L27.8249 32.5633L27.4587 32.4996C26.5514 32.3419 25.7656 31.4249 25.7656 30.2167C25.7656 29.4816 26.055 28.8509 26.4855 28.4294H44.1684C44.5989 28.8509 44.8883 29.4816 44.8883 30.2167C44.8883 31.5519 43.9683 32.518 42.9468 32.518H42.9467H42.9465H42.9464H42.9462H42.9461H42.9459H42.9458H42.9456H42.9455H42.9453H42.9452H42.945H42.9449H42.9447H42.9446H42.9444H42.9443H42.9441H42.944H42.9438H42.9437H42.9435H42.9434H42.9432H42.9431H42.9429H42.9428H42.9426H42.9425H42.9423H42.9422H42.942H42.9419H42.9417H42.9416H42.9414H42.9413H42.9411H42.941H42.9408H42.9407H42.9405H42.9404H42.9402H42.9401H42.9399H42.9398H42.9396H42.9395H42.9393H42.9392H42.939H42.9389H42.9387H42.9386H42.9384H42.9383H42.9381H42.938H42.9378H42.9377H42.9375H42.9373H42.9372H42.937H42.9369H42.9367H42.9366H42.9364H42.9363H42.9361H42.936H42.9358H42.9357H42.9355H42.9354H42.9352H42.9351H42.9349H42.9348H42.9346H42.9345H42.9343H42.9342H42.934H42.9339H42.9337H42.9336H42.9334H42.9333H42.9331H42.933H42.9328H42.9327H42.9325H42.9324H42.9322H42.9321H42.9319H42.9318H42.9316H42.9315H42.9313H42.9312H42.931H42.9309H42.9307H42.9306H42.9304H42.9303H42.9301H42.93H42.9298H42.9297H42.9295H42.9294H42.9292H42.9291H42.9289H42.9288H42.9286H42.9285H42.9283H42.9282H42.928H42.9279H42.9277H42.9276H42.9274H42.9273H42.9271H42.927H42.9268H42.9267H42.9265H42.9264H42.9262H42.9261H42.9259H42.9258H42.9256H42.9255H42.9253H42.9252H42.925H42.9249H42.9247H42.9246H42.9244H42.9243H42.9241H42.924H42.9238H42.9237H42.9235H42.9234H42.9232H42.9231H42.9229H42.9228H42.9226H42.9225H42.9223H42.9222H42.922H42.9219H42.9217H42.9216H42.9214H42.9213H42.9211H42.921H42.9208H42.9207H42.9205H42.9203H42.9202H42.92H42.9199H42.9197H42.9196H42.9194H42.9193H42.9191H42.919H42.9188H42.9187H42.9185H42.9184H42.9182H42.9181H42.9179H42.9178H42.9176H42.9175H42.9173H42.9172H42.917H42.9169H42.9167H42.9166H42.9164H42.9163H42.9161H42.916H42.9158H42.9157H42.9155H42.9154H42.9152H42.9151H42.9149H42.9148H42.9146H42.9145H42.9143H42.9142H42.914H42.9139H42.9137H42.9136H42.9134H42.9133H42.9131H42.913H42.9128H42.9127H42.9125H42.9124H42.9122H42.9121H42.9119H42.9118H42.9116H42.9115H42.9113H42.9112H42.911H42.9109H42.9107H42.9106H42.9104H42.9103H42.9101H42.91H42.9098H42.9097H42.9095H42.9094H42.9092H42.9091H42.9089H42.9088H42.9086H42.9085H42.9083H42.9082H42.908H42.9079H42.9077H42.9076H42.9074H42.9073H42.9071H42.907H42.9068H42.9067H42.9065H42.9064H42.9062H42.9061H42.9059H42.9058H42.9056H42.9055H42.9053H42.9052H42.905H42.9049H42.9047H42.9046H42.9044H42.9043H42.9041H42.904H42.9038H42.9037H42.9035H42.9033H42.9032H42.903H42.9029H42.9027H42.9026H42.9024H42.9023H42.9021H42.902H42.9018H42.9017H42.9015H42.9014H42.9012H42.9011H42.9009H42.9008H42.9006H42.9005H42.9003H42.9002H42.9H42.8999H42.8997H42.8996H42.8994H42.8993H42.8991H42.899H42.8988H42.8987H42.8985H42.8984H42.8982H42.8981H42.8979H42.8978H42.8976H42.8975H42.8973H42.8972H42.897H42.8969H42.8967H42.8966H42.8964H42.8963H42.8961H42.896H42.8958H42.8957H42.8955H42.8954H42.8952H42.8951H42.8949H42.8948H42.8946H42.8945H42.8943H42.8942H42.894H42.8939H42.8937H42.8936H42.8934H42.8933H42.8931H42.893H42.8928H42.8927H42.8925H42.8924H42.8922H42.8921H42.8919H42.8918H42.8916H42.8915H42.8913H42.8912H42.891H42.8909H42.8907H42.8906H42.8904H42.8902H42.8901H42.8899H42.8898H42.8896H42.8895H42.8893H42.8892H42.889H42.8889H42.8887H42.8886H42.8884H42.8883H42.8881H42.888H42.8878H42.8877H42.8875H42.8874H42.8872H42.8871H42.8869H42.8868H42.8866H42.8865H42.8863H42.8862H42.886H42.8859H42.8857H42.8856H42.8854H42.8853H42.8851H42.885H42.8848H42.8847H42.8845H42.8844H42.8842H42.8841H42.8839H42.8838H42.8836H42.8835H42.8833H42.8832H42.883H42.8829H42.8827H42.8826H42.8824H42.8823H42.8821H42.882H42.8818H42.8817H42.8815H42.8814H42.8812H42.8811H42.8809H42.8808H42.8806H42.8805H42.8803H42.8801H42.88H42.8798H42.8797H42.8795H42.8794H42.8792H42.8791H42.8789H42.8788H42.8786H42.8785H42.8783H42.8782H42.878H42.8779H42.8777H42.8776H42.8774H42.8773H42.8771H42.877H42.8768H42.8767H42.8765H42.8764H42.8762H42.8761H42.8759H42.8758H42.8756H42.8755H42.8753H42.8752H42.875H42.8749H42.8747H42.8746H42.8744H42.8743H42.8741H42.874H42.8738H42.8737H42.8735H42.8734H42.8732H42.8731H42.8729H42.8728H42.8726H42.8725H42.8723H42.8722H42.872H42.8718H42.8717H42.8715H42.8714H42.8712H42.8711H42.8709H42.8708H42.8706H42.8705H42.8703H42.8702H42.87H42.8699H42.8697H42.421L42.3726 32.9641C42.1535 34.9848 41.3035 36.7329 40.0935 38.0425C39.8086 38.3274 39.5531 38.5813 39.2802 38.7858L39.274 38.7905L39.2678 38.7954C38.9124 39.0798 38.5291 39.3201 38.1132 39.5404C37.2061 40.0176 36.2065 40.2791 35.1342 40.2791C34.0619 40.2791 33.0625 40.0177 32.1554 39.5405C31.7394 39.3202 31.3561 39.0798 31.0005 38.7954L30.9944 38.7905L30.9881 38.7858C30.7148 38.5808 30.4586 38.3263 30.1731 38.0408C28.9437 36.7367 28.1142 34.9641 27.8694 32.9324Z" stroke="#2A374A"/>
            <path d="M44.0496 22.6777L44.0496 22.6778L44.052 22.6854L44.2321 23.2508L44.343 23.599H44.7085H45.6547V25.8115H42.6525H41.7273H29.3401H28.3892H26.1276H25.0085V23.599H25.9734H26.339L26.4499 23.2506L26.6298 22.6852L26.6298 22.6853L26.6321 22.6777C27.3171 20.4018 29.0292 18.0722 31.2301 16.6476V21.9426V22.6621C31.2301 22.6657 31.2301 22.6692 31.2301 22.6729C31.2301 22.77 31.23 22.8939 31.2666 23.0489C31.3233 23.3554 31.4155 23.6781 31.6149 23.9817C32.0405 24.6926 32.8427 25.1667 33.7347 25.1667H36.5616H36.9728C37.9495 25.1667 38.7787 24.5825 39.1897 23.7923L39.1897 23.7924L39.1934 23.7851C39.36 23.4517 39.4208 23.1268 39.4496 22.8102L39.4516 22.7876V22.7649V22.7648V22.7646V22.7645V22.7643V22.7642V22.764V22.7639V22.7637V22.7636V22.7634V22.7633V22.7631V22.763V22.7628V22.7627V22.7625V22.7624V22.7622V22.7621V22.7619V22.7618V22.7616V22.7615V22.7613V22.7612V22.761V22.7609V22.7607V22.7606V22.7604V22.7603V22.7601V22.76V22.7598V22.7597V22.7595V22.7594V22.7592V22.7591V22.7589V22.7587V22.7586V22.7584V22.7583V22.7581V22.758V22.7578V22.7577V22.7575V22.7574V22.7572V22.7571V22.7569V22.7568V22.7566V22.7565V22.7563V22.7562V22.756V22.7559V22.7557V22.7556V22.7554V22.7552V22.7551V22.7549V22.7548V22.7546V22.7545V22.7543V22.7542V22.754V22.7539V22.7537V22.7536V22.7534V22.7533V22.7531V22.7529V22.7528V22.7526V22.7525V22.7523V22.7522V22.752V22.7519V22.7517V22.7516V22.7514V22.7512V22.7511V22.7509V22.7508V22.7506V22.7505V22.7503V22.7502V22.75V22.7498V22.7497V22.7495V22.7494V22.7492V22.7491V22.7489V22.7487V22.7486V22.7484V22.7483V22.7481V22.748V22.7478V22.7476V22.7475V22.7473V22.7472V22.747V22.7469V22.7467V22.7465V22.7464V22.7462V22.7461V22.7459V22.7457V22.7456V22.7454V22.7453V22.7451V22.7449V22.7448V22.7446V22.7445V22.7443V22.7441V22.744V22.7438V22.7437V22.7435V22.7433V22.7432V22.743V22.7428V22.7427V22.7425V22.7424V22.7422V22.742V22.7419V22.7417V22.7415V22.7414V22.7412V22.741V22.7409V22.7407V22.7406V22.7404V22.7402V22.7401V22.7399V22.7397V22.7396V22.7394V22.7392V22.7391V22.7389V22.7387V22.7386V22.7384V22.7382V22.7381V22.7379V22.7377V22.7376V22.7374V22.7372V22.7371V22.7369V22.7367V22.7365V22.7364V22.7362V22.736V22.7359V22.7357V22.7355V22.7354V22.7352V22.735V22.7348V22.7347V22.7345V22.7343V22.7342V22.734V22.7338V22.7336V22.7335V22.7333V22.7331V22.7329V22.7328V22.7326V22.7324V22.7322V22.7321V22.7319V22.7317V22.7315V22.7314V22.7312V22.731V22.7308V22.7307V22.7305V22.7303V22.7301V22.7299V22.7298V22.7296V22.7294V22.7292V22.7291V22.7289V22.7287V22.7285V22.7283V22.7282V22.728V22.7278V22.7276V22.7274V22.7272V22.7271V22.7269V22.7267V22.7265V22.7263V22.7261V22.726V22.7258V22.7256V22.7254V22.7252V22.725V22.7249V22.7247V22.7245V22.7243V22.7241V22.7239V22.7237V22.7236V22.7234V22.7232V22.723V22.7228V22.7226V22.7224V22.7222V22.722V22.7218V22.7217V22.7215V22.7213V22.7211V22.7209V22.7207V22.7205V22.7203V22.7201V22.7199V22.7197V22.7195V22.7193V22.7192V22.719V22.7188V22.7186V22.7184V22.7182V22.718V22.7178V22.7176V22.7174V22.7172V22.717V22.7168V22.7166V22.7164V22.7162V22.716V22.7158V22.7156V22.7154V22.7152V22.715V22.7148V22.7146V22.7144V22.7142V22.714V22.7138V22.7136V22.7134V22.7132V22.713V22.7128V22.7126V22.7123V22.7121V22.7119V22.7117V22.7115V22.7113V22.7111V22.7109V22.7107V22.7105V22.7103V22.7101V22.7098V22.7096V22.7094V22.7092V22.709V22.7088V22.7086V22.7084V22.7081V22.7079V22.7077V22.7075V22.7073V22.7071V22.7069V22.7066V22.7064V22.7062V22.706V22.7058V22.7056V22.7053V22.7051V22.7049V22.7047V22.7045V22.7042V22.704V22.7038V22.7036V22.7034V22.7031V22.7029V22.7027V22.7025V22.7022V22.702V22.7018V22.7016V22.7013V22.7011V22.7009V22.7007V22.7004V22.7002V22.7V22.6998V22.6995V22.6993V22.6991V22.6988V22.6986V22.6984V22.6981V22.6979V22.6977V22.6974V22.6972V22.697V22.6967V22.6965V22.6963V22.696V22.6958V22.6956V22.6953V22.6951V22.6949V22.6946V22.6944V22.6941V22.6939V22.6937V22.6934V22.6932V22.6929V22.6927V22.6924V22.6922V22.692V22.6917V22.6915V22.6912V22.691V22.6907V22.6905V22.6902V22.69V22.6898V22.6895V22.6893V22.689V22.6888V22.6885V22.6883V22.688V22.6878V22.6875V22.6873V22.687V22.6867V22.6865V22.6862V22.686V22.6857V22.6855V22.6852V22.685V22.6847V22.6844V22.6842V22.6839V22.6837V22.6834V22.6832V22.6829V22.6826V22.6824V22.6821V22.6818V22.6816V22.6813V22.6811V22.6808V22.6805V22.6803V22.68V22.6797V22.6795V22.6792V22.6789V22.6787V22.6784V22.6781V22.6778V22.6776V22.6773V22.677V22.6768V22.6765V22.6762V22.6759V22.6757V22.6754V22.6751V22.6748V22.6746V22.6743V22.674V22.6737V22.6734V22.6732V22.6729V22.6726V22.6723V22.672V22.6718V22.6715V22.6712V22.6709V22.6706V22.6703V22.6701V22.6698V22.6695V22.6692V22.6689V22.6686V22.6683V22.668V22.6678V22.6675V22.6672V22.6669V22.6666V22.6663V22.666V22.6657V22.6654V22.6651V22.6648V22.6645V22.6642V22.6639V22.6636V22.6633V22.663V22.6627V22.6624V22.6621V21.8398V16.6664C41.6514 18.0714 43.3642 20.4005 44.0496 22.6777Z" stroke="#E30713"/>
            <path d="M37.2383 22.3875L37.2347 22.3938L37.2313 22.4003C37.1302 22.5898 36.9529 22.7018 36.7437 22.7018H33.9123C33.7302 22.7018 33.5609 22.6149 33.4416 22.4653C33.379 22.3591 33.3477 22.2518 33.3477 22.1372V22.0466V21.1859V15.7495V14.9794V14.3839C33.3506 14.3716 33.3547 14.354 33.3582 14.3353C33.3626 14.3118 33.3675 14.2798 33.3695 14.242C33.3966 13.995 33.6207 13.7805 33.9123 13.7805H36.404C36.7685 13.7805 37.1057 14.0191 37.2441 14.3491C37.2867 14.4993 37.3083 14.5889 37.3083 14.6849V14.9794V15.7495V21.0953V21.9334V22.1372C37.3083 22.2249 37.2891 22.2986 37.2383 22.3875Z" stroke="#E30713"/>
            <path fill-rule="evenodd" clip-rule="evenodd" d="M42.3838 43.3009L42.1686 43.0935L40.6485 41.6284C39.062 42.7187 37.2025 43.3479 35.204 43.3479C33.3415 43.3479 31.5713 42.7914 30.0581 41.8161L28.7517 43.0695L28.4616 43.3479H28.3231C29.985 45.0832 32.4993 46.2021 35.3311 46.2021C38.1884 46.2021 40.7224 45.0629 42.3838 43.3009ZM27.0016 43.3479H24.678C23.2263 43.3479 22.1723 43.8278 21.3215 44.8022C20.0107 46.3239 19.3936 48.8305 19.1724 51.4183C19.0018 53.4145 19.0761 55.3293 19.1707 56.6135H51.5449C51.6081 55.3095 51.6328 53.3606 51.4138 51.3379C51.1287 48.7059 50.4522 46.1748 49.1211 44.688C48.3109 43.7957 47.3737 43.3735 46.1116 43.3735H43.6405C41.8097 45.6985 38.7605 47.2021 35.3311 47.2021C31.8891 47.2021 28.8301 45.6874 27.0016 43.3479ZM18.2531 57.6135H52.4849C52.665 55.249 52.9734 47.4877 49.8637 44.0183C48.8615 42.9132 47.6537 42.3735 46.1116 42.3735H42.8625L40.7295 40.3176C39.1618 41.6026 37.26 42.3479 35.204 42.3479C33.2765 42.3479 31.4519 41.6797 29.9613 40.5232L28.0594 42.3479H24.678C22.9561 42.3479 21.6198 42.939 20.5661 44.1469C17.5078 47.6934 18.0218 55.2748 18.2531 57.6135Z" fill="#2A374A"/>
        </g>
        <defs>
            <clipPath id="clip0">
                <rect width="44.9999" height="45" fill="white" transform="translate(12.832 12.6133)"/>
            </clipPath>
        </defs>
    </symbol>

    <symbol id="doc-4" viewBox="0 0 71 71" fill="none">
        <rect x="0.332031" y="0.113281" width="70" height="70" rx="10" fill="#F7F8FA"/>
        <path d="M35.332 41.4893C39.129 41.4893 42.207 38.4112 42.207 34.6143C42.207 30.8173 39.129 27.7393 35.332 27.7393C31.5351 27.7393 28.457 30.8173 28.457 34.6143C28.457 38.4112 31.5351 41.4893 35.332 41.4893Z" stroke="#E30713" stroke-miterlimit="10" stroke-linecap="round" stroke-linejoin="round"/>
        <path d="M35.332 44.4346C40.7556 44.4346 45.1523 40.0379 45.1523 34.6143C45.1523 29.1906 40.7556 24.7939 35.332 24.7939C29.9084 24.7939 25.5117 29.1906 25.5117 34.6143C25.5117 40.0379 29.9084 44.4346 35.332 44.4346Z" stroke="#2A374A" stroke-miterlimit="10" stroke-linecap="round" stroke-linejoin="round"/>
        <path d="M55.2695 31.1768H50.7657C50.3684 29.3865 49.6609 27.6796 48.675 26.1333L51.8609 22.9474C51.9898 22.8185 52.0622 22.6436 52.0622 22.4613C52.0622 22.279 51.9898 22.1042 51.8609 21.9753L47.9717 18.0854C47.8428 17.9565 47.668 17.8841 47.4857 17.8841C47.3034 17.8841 47.1285 17.9565 46.9996 18.0854L43.8137 21.2713C42.2672 20.2856 40.56 19.5782 38.7695 19.1813V14.6768C38.7695 14.4944 38.6971 14.3196 38.5682 14.1906C38.4392 14.0617 38.2644 13.9893 38.082 13.9893H32.582C32.3997 13.9893 32.2248 14.0617 32.0959 14.1906C31.967 14.3196 31.8945 14.4944 31.8945 14.6768V19.1813C30.1043 19.5785 28.3973 20.2861 26.851 21.2719L23.6645 18.0854C23.5355 17.9565 23.3607 17.8841 23.1784 17.8841C22.9961 17.8841 22.8213 17.9565 22.6923 18.0854L18.8032 21.9746C18.6743 22.1035 18.6019 22.2783 18.6019 22.4606C18.6019 22.6429 18.6743 22.8178 18.8032 22.9467L21.989 26.1326C21.0034 27.6791 20.296 29.3863 19.899 31.1768H15.3945C15.2122 31.1768 15.0373 31.2492 14.9084 31.3781C14.7795 31.5071 14.707 31.6819 14.707 31.8643V37.3643C14.707 37.5466 14.7795 37.7215 14.9084 37.8504C15.0373 37.9793 15.2122 38.0518 15.3945 38.0518H19.899C20.2963 39.842 21.0039 41.549 21.9897 43.0953L18.8032 46.2818C18.6743 46.4107 18.6019 46.5856 18.6019 46.7679C18.6019 46.9502 18.6743 47.125 18.8032 47.2539L22.6923 51.1431C22.8213 51.272 22.9961 51.3444 23.1784 51.3444C23.3607 51.3444 23.5355 51.272 23.6645 51.1431L26.8503 47.9573C28.3969 48.9431 30.104 49.6507 31.8945 50.0479V54.5518C31.8945 54.7341 31.967 54.909 32.0959 55.0379C32.2248 55.1668 32.3997 55.2393 32.582 55.2393H38.082C38.2644 55.2393 38.4392 55.1668 38.5682 55.0379C38.6971 54.909 38.7695 54.7341 38.7695 54.5518V50.0479C40.5598 49.6506 42.2667 48.9431 43.813 47.9573L46.9989 51.1431C47.1278 51.272 47.3027 51.3444 47.485 51.3444C47.6673 51.3444 47.8421 51.272 47.971 51.1431L51.8602 47.2539C51.9891 47.125 52.0615 46.9502 52.0615 46.7679C52.0615 46.5856 51.9891 46.4107 51.8602 46.2818L48.6743 43.0959C49.6605 41.5495 50.3683 39.8423 50.7657 38.0518H55.2695C55.4519 38.0518 55.6267 37.9793 55.7557 37.8504C55.8846 37.7215 55.957 37.5466 55.957 37.3643V31.8643C55.957 31.6819 55.8846 31.5071 55.7557 31.3781C55.6267 31.2492 55.4519 31.1768 55.2695 31.1768Z" stroke="#2A374A" stroke-miterlimit="10" stroke-linecap="round" stroke-linejoin="round"/>
    </symbol>

    <symbol id="doc-5" viewBox="0 0 71 71" fill="none">
        <rect x="0.332031" y="0.613281" width="70" height="70" rx="10" fill="#F7F8FA"/>
        <g clip-path="url(#clip0)">
            <path d="M20.5664 14.5195V56.707H50.0977V25.7695L38.8477 14.5195H20.5664Z" stroke="#2A374A" stroke-width="1.2" stroke-miterlimit="10" stroke-linecap="round" stroke-linejoin="round"/>
            <path d="M38.8477 14.5195V25.7695H50.0977" stroke="#2A374A" stroke-width="1.2" stroke-miterlimit="10" stroke-linecap="round" stroke-linejoin="round"/>
            <path d="M27.5977 49.6758H40.2539M27.5977 28.582H33.2227H27.5977ZM27.5977 35.6133H43.0664H27.5977ZM27.5977 42.6445H43.0664H27.5977Z" stroke="#E30713" stroke-width="1.2" stroke-miterlimit="10" stroke-linecap="round" stroke-linejoin="round"/>
        </g>
        <defs>
            <clipPath id="clip0">
                <rect width="45" height="45" fill="white" transform="translate(12.832 13.1133)"/>
            </clipPath>
        </defs>
    </symbol>

    <symbol id="map" viewBox="0 0 40 40" fill="none">
        <path d="M20.0976 25.1503C24.361 25.1503 27.8173 21.6941 27.8173 17.4306C27.8173 13.1671 24.361 9.71094 20.0976 9.71094C15.8341 9.71094 12.3779 13.1671 12.3779 17.4306C12.3779 21.6941 15.8341 25.1503 20.0976 25.1503Z" stroke="#E30713" stroke-linecap="round" stroke-linejoin="round"/>
        <path d="M20.0978 21.842C22.534 21.842 24.509 19.867 24.509 17.4308C24.509 14.9945 22.534 13.0195 20.0978 13.0195C17.6615 13.0195 15.6865 14.9945 15.6865 17.4308C15.6865 19.867 17.6615 21.842 20.0978 21.842Z" stroke="#E30713" stroke-linecap="round" stroke-linejoin="round"/>
        <path d="M31.7952 29.1276L23.0216 37.9011C22.2462 38.6758 21.1949 39.1109 20.0988 39.1109C19.0028 39.1109 17.9515 38.6758 17.1761 37.9011L8.40045 29.1276C6.08708 26.8141 4.51167 23.8665 3.87346 20.6577C3.23525 17.4489 3.56289 14.1228 4.81495 11.1002C6.06701 8.07758 8.18726 5.4941 10.9076 3.67647C13.6279 1.85883 16.8261 0.888672 20.0978 0.888672C23.3695 0.888672 26.5677 1.85883 29.288 3.67647C32.0084 5.4941 34.1286 8.07758 35.3807 11.1002C36.6327 14.1228 36.9604 17.4489 36.3222 20.6577C35.6839 23.8665 34.1085 26.8141 31.7952 29.1276V29.1276Z" stroke="#2A374A" stroke-linecap="round" stroke-linejoin="round"/>
    </symbol>

    <symbol id="clear" viewBox="0 0 19 20" fill="none">
        <path d="M17.5 2L1.5 18" stroke="#E30713" stroke-width="2" stroke-linecap="square" stroke-linejoin="bevel"/>
        <path d="M1.5 2L17.5 18" stroke="#E30713" stroke-width="2" stroke-linecap="square" stroke-linejoin="bevel"/>
    </symbol>

    <symbol id="catalog-arrow" viewBox="0 0 32 20" fill="none">
        <path d="M21.1133 0.999997L30.1133 10M30.1133 10L21.1133 19M30.1133 10L0.113281 10" stroke="white" stroke-width="2"/>
    </symbol>

    <symbol id="red-arrow" viewBox="0 0 26 17" fill="none">
        <path d="M16.874 1.41007L23.9985 8.53463M23.9985 8.53463L16.874 15.6592M23.9985 8.53463L0.25 8.53463" stroke="#E30713" stroke-width="2.05361"/>
    </symbol>

    <symbol id="logo-small" viewBox="0 0 42 42" fill="none">
        <path d="M41.6046 33.5985L33.2831 41.9975L2.50554 42.0003L0 39.4704V8.39815L8.32069 0.000976562H39.0982L41.6046 2.5282V33.5985Z" fill="#E30713"/>
        <path d="M39.0987 0L29.7417 9.44556V23.2363L22.0781 12.5985H5.9177V15.9415H10.6804V28.6864L0 39.4699V41.9993L2.50635 41.9972L14.2694 30.1205V15.9415H19.0304V29.3987H22.5743V18.7637L30.2408 29.3987H33.2835V10.9277L41.6046 2.52997V0H39.0987Z" fill="#FEFEFE"/>
    </symbol>

    <symbol id="uxart" viewBox="0 0 52 11" fill="none">
        <path d="M30.1099 7.86397H24.483L23.2711 10.685H22.1602L26.777 0.125H27.8303L32.4472 10.685H31.3218L30.1099 7.86397ZM29.7203 6.95883L27.2964 1.2866L24.8726 6.95883H29.7203Z" fill="#2A374A"/>
        <path d="M47.1313 1.09049H43.582V0.125H51.7481V1.09049H48.1989V10.685H47.1313V1.09049Z" fill="#2A374A"/>
        <path d="M41.0127 10.686L38.7042 7.29169C38.4445 7.32186 38.1752 7.33695 37.8963 7.33695H35.1839V10.686H34.1162V0.125977H37.8963C39.1852 0.125977 40.1951 0.447805 40.9261 1.09146C41.6571 1.73512 42.0226 2.62015 42.0226 3.74655C42.0226 4.57123 41.8206 5.27021 41.4167 5.84346C41.0223 6.40666 40.4548 6.81398 39.7142 7.06541L42.1813 10.686H41.0127ZM37.8674 6.38655C38.8677 6.38655 39.6324 6.15523 40.1614 5.69261C40.6905 5.22998 40.955 4.58129 40.955 3.74655C40.955 2.89169 40.6905 2.23798 40.1614 1.7854C39.6324 1.32278 38.8677 1.09146 37.8674 1.09146H35.1839V6.38655H37.8674Z" fill="#2A374A"/>
        <path d="M17.8879 10.686L15.4497 7.02015L13.0547 10.686H10.3711L14.1079 5.31546L10.5587 0.125977H13.2134L15.5362 3.55043L17.8158 0.125977H20.3407L16.8203 5.22495L20.5859 10.686H17.8879Z" fill="#2A374A"/>
        <path d="M4.78452 10.866C3.34174 10.866 2.2164 10.4487 1.40844 9.61391C0.610107 8.77917 0.210938 7.5874 0.210938 6.0386V0.125H2.54823V5.94809C2.54823 7.83883 3.29846 8.7842 4.79895 8.7842C5.52995 8.7842 6.08783 8.55791 6.47257 8.10534C6.85731 7.64271 7.04968 6.92363 7.04968 5.94809V0.125H9.35812V6.0386C9.35812 7.5874 8.95414 8.77917 8.14618 9.61391C7.34785 10.4487 6.22729 10.866 4.78452 10.866Z" fill="#2A374A"/>
    </symbol>

    <symbol id="calendar" viewBox="0 0 24 24" fill="none">
        <g opacity="0.4">
            <path d="M19 4H5C3.89543 4 3 4.89543 3 6V20C3 21.1046 3.89543 22 5 22H19C20.1046 22 21 21.1046 21 20V6C21 4.89543 20.1046 4 19 4Z" stroke="#2A374A" stroke-width="2" stroke-linecap="round" stroke-linejoin="round"/>
            <path d="M16 2V6" stroke="#2A374A" stroke-width="2" stroke-linecap="round" stroke-linejoin="round"/>
            <path d="M8 2V6" stroke="#2A374A" stroke-width="2" stroke-linecap="round" stroke-linejoin="round"/>
            <path d="M3 10H21" stroke="#2A374A" stroke-width="2" stroke-linecap="round" stroke-linejoin="round"/>
        </g>
    </symbol>

    <symbol id="search" viewBox="0 0 24 24" fill="none">
        <g opacity="0.4">
            <path d="M11 19C15.4183 19 19 15.4183 19 11C19 6.58172 15.4183 3 11 3C6.58172 3 3 6.58172 3 11C3 15.4183 6.58172 19 11 19Z" stroke="#2A374A" stroke-width="2" stroke-linecap="round" stroke-linejoin="round"/>
            <path d="M20.9999 21.0004L16.6499 16.6504" stroke="#2A374A" stroke-width="2" stroke-linecap="round" stroke-linejoin="round"/>
        </g>
    </symbol>

    <symbol id="location" viewBox="0 0 15 15" fill="none">
        <g opacity="0.4">
            <path d="M11.986 1.85818C10.7878 0.659912 9.19459 0 7.5 0C5.80541 0 4.21222 0.659912 3.01398 1.85818C1.81567 3.05648 1.15576 4.64965 1.15576 6.34421C1.15576 9.77232 4.39717 12.6236 6.13858 14.1555C6.38054 14.3684 6.58951 14.5522 6.75595 14.7076C6.96457 14.9026 7.23223 15 7.49997 15C7.76769 15 8.0354 14.9025 8.244 14.7077C8.41049 14.5522 8.61944 14.3684 8.8614 14.1555C10.6028 12.6237 13.8442 9.77235 13.8442 6.34424C13.8442 4.64965 13.1843 3.05648 11.986 1.85818ZM7.5 8.9003C5.95837 8.9003 4.7042 7.64613 4.7042 6.1045C4.7042 4.56287 5.95837 3.3087 7.5 3.3087C9.04164 3.3087 10.2958 4.56287 10.2958 6.1045C10.2958 7.64613 9.04161 8.9003 7.5 8.9003Z" fill="#2A374A"/>
        </g>
    </symbol>

    <symbol id="webinar" viewBox="0 0 25 25" fill="none">
        <path d="M22.6844 16.8987V15.9732V10.4176V4.86206C22.6844 4.3536 22.2682 3.93652 21.7589 3.93652H3.24113C2.73179 3.93652 2.31442 4.35155 2.31442 4.86206V10.4176V15.9732V16.8987L0 19.6765C0 20.4418 0.621515 21.0642 1.38889 21.0642H23.6111C24.3773 21.0642 25 20.4415 25 19.6765L22.6844 16.8987ZM14.3531 20.6029H10.6489C10.5209 20.6029 10.4173 20.5001 10.4173 20.3712C10.4173 20.2424 10.5209 20.1395 10.6489 20.1395H14.3534C14.4802 20.1395 14.5851 20.2424 14.5851 20.3712C14.5816 20.5004 14.4799 20.6029 14.3531 20.6029ZM8.68334 19.6774L9.38979 18.8294H15.6087L16.3164 19.6774H8.68334ZM21.3813 15.2612C21.3813 15.7078 21.0176 16.0692 20.5741 16.0692H4.42558C3.98215 16.0692 3.61837 15.7046 3.61837 15.2612V5.57583C3.61837 5.12918 3.98215 4.76775 4.42558 4.76775H20.5744C21.0179 4.76775 21.3816 5.13152 21.3816 5.57583C21.3813 5.57583 21.3813 15.2612 21.3813 15.2612Z" fill="#E30713"/>
        <path d="M14.7895 10.0939C15.0702 10.2744 15.0702 10.7256 14.7895 10.9061L11.6316 12.9365C11.3509 13.117 11 12.8914 11 12.5304L11 8.4696C11 8.10864 11.3509 7.88304 11.6316 8.06352L14.7895 10.0939Z" fill="#E30713"/>
    </symbol>

    <symbol id="video" viewBox="0 0 50 35" fill="none">
        <path d="M48.6988 5.46736C48.4157 4.40865 47.8606 3.44318 47.089 2.66756C46.3175 1.89194 45.3565 1.33337 44.3024 1.04777C40.4223 2.12603e-07 24.8684 0 24.8684 0C24.8684 0 9.31456 -2.12603e-07 5.43442 1.0422C4.37984 1.32687 3.41843 1.88513 2.64674 2.66089C1.87505 3.43665 1.32024 4.40262 1.03803 5.46178C-2.11753e-07 9.36306 0 17.5 0 17.5C0 17.5 -2.11753e-07 25.6369 1.03803 29.5326C1.60979 31.6839 3.29729 33.3782 5.43442 33.9522C9.31456 35 24.8684 35 24.8684 35C24.8684 35 40.4223 35 44.3024 33.9522C46.4451 33.3782 48.1271 31.6839 48.6988 29.5326C49.7368 25.6369 49.7368 17.5 49.7368 17.5C49.7368 17.5 49.7368 9.36306 48.6988 5.46736ZM19.928 24.9682V10.0318L32.8063 17.4443L19.928 24.9682Z" fill="#E30713"/>
    </symbol>

    <symbol id="film" viewBox="0 0 25 24" fill="none">
        <path d="M25 2.01342C25 0.901426 24.0986 0 22.9866 0H2.01342C0.901426 0 0 0.901426 0 2.01342V21.4765C0 22.5885 0.901426 23.4899 2.01342 23.4899H22.9866C24.0986 23.4899 25 22.5885 25 21.4765V2.01342ZM7.63423 2.51678H11.2416V5.36913H7.63423V2.51678ZM5.11745 20.9732H2.51678V18.1208H5.11745V20.9732ZM5.11745 5.36913H2.51678V2.51678H5.11745V5.36913ZM11.2416 20.9732H7.63423V18.1208H11.2416V20.9732ZM10.3188 14.0695V9.42039C10.3188 8.72827 10.8111 8.47223 11.3901 8.85134L14.7657 11.0554C15.3447 11.4345 15.3494 12.0549 14.7704 12.4341L11.3878 14.6385C10.8087 15.0177 10.3188 14.7616 10.3188 14.0695ZM17.3658 20.9732H13.7584V18.1208H17.3658V20.9732ZM17.3658 5.36913H13.7584V2.51678H17.3658V5.36913ZM22.4832 20.9732H19.8826V18.1208H22.4832V20.9732ZM22.4832 5.36913H19.8826V2.51678H22.4832V5.36913Z" fill="#E63741"/>
    </symbol>

    <symbol id="favorites" viewBox="0 0 18 24" fill="none">
        <path d="M1.12185 22.4999H1.12153C1.10475 22.4999 1.09356 22.4961 1.08743 22.4931C1.0817 22.4902 1.07918 22.4875 1.07753 22.4852C1.04219 22.4362 1 22.3482 1 22.1934V2.45241C1 2.02695 1.45789 1.5 2.11703 1.5H15.958C16.5691 1.5 17 1.98185 17 2.45241V22.1935C17 22.3218 16.9812 22.4019 16.9657 22.4458C16.958 22.4678 16.9507 22.4818 16.9459 22.4897C16.9433 22.4941 16.9412 22.4972 16.9397 22.4991C16.9371 22.4995 16.9331 22.5 16.9274 22.5C16.9092 22.5 16.8077 22.4949 16.6053 22.3284L16.6044 22.3277L10.4337 17.2605C10.4334 17.2602 10.433 17.26 10.4327 17.2597C10.0349 16.9326 9.5259 16.7843 9.04657 16.7843C8.56837 16.7843 8.05879 16.9319 7.66103 17.2587C7.66044 17.2592 7.65986 17.2596 7.65927 17.2601L1.46907 22.3275L1.46678 22.3294C1.28229 22.4813 1.1571 22.4999 1.12185 22.4999Z" stroke="white" stroke-width="2"/>
    </symbol>

    <symbol id="videoplay" viewBox="0 0 87 87" fill="none">
        <circle cx="43.5" cy="43.5" r="43.5" fill="#ED1C24"/>
        <path d="M32 23.8364C32 23.0443 32.8772 22.5666 33.5426 22.9964L62.9195 41.9723C63.5294 42.3663 63.5294 43.2584 62.9195 43.6523L33.5426 62.6282C32.8772 63.058 32 62.5803 32 61.7882V23.8364Z" fill="white"/>
    </symbol>

    <symbol id="pdf" viewBox="0 0 27 33" fill="none">
        <path d="M14.875 1.08301H4.08333C3.26558 1.08301 2.48132 1.40786 1.90309 1.9861C1.32485 2.56433 1 3.34859 1 4.16634V28.833C1 29.6508 1.32485 30.435 1.90309 31.0133C2.48132 31.5915 3.26558 31.9163 4.08333 31.9163H22.5833C23.4011 31.9163 24.1853 31.5915 24.7636 31.0133C25.3418 30.435 25.6667 29.6508 25.6667 28.833V11.8747L14.875 1.08301Z" stroke="#E30713" stroke-width="2" stroke-linecap="round" stroke-linejoin="round"/>
        <path d="M14.875 1.08301V11.8747H25.6667" stroke="#E30713" stroke-width="2" stroke-linecap="round" stroke-linejoin="round"/>
        <path d="M7.96398 24.12C7.28398 24.12 6.74065 23.8367 6.33398 23.27V25.84H5.58398V19.17H6.33398V19.89C6.51398 19.6367 6.74732 19.4333 7.03398 19.28C7.32065 19.1267 7.63065 19.05 7.96398 19.05C8.60398 19.05 9.12065 19.28 9.51398 19.74C9.91398 20.1933 10.114 20.8067 10.114 21.58C10.114 22.3533 9.91398 22.97 9.51398 23.43C9.12065 23.89 8.60398 24.12 7.96398 24.12ZM7.77398 23.45C8.24732 23.45 8.62398 23.2767 8.90398 22.93C9.18398 22.5767 9.32398 22.1267 9.32398 21.58C9.32398 21.0333 9.18398 20.5867 8.90398 20.24C8.62398 19.8933 8.24732 19.72 7.77398 19.72C7.48732 19.72 7.20732 19.7967 6.93398 19.95C6.66732 20.0967 6.46732 20.2767 6.33398 20.49V22.67C6.46732 22.89 6.66732 23.0767 6.93398 23.23C7.20732 23.3767 7.48732 23.45 7.77398 23.45ZM15.5566 24H14.8066V23.28C14.3933 23.84 13.85 24.12 13.1766 24.12C12.5366 24.12 12.0166 23.8933 11.6166 23.44C11.2233 22.98 11.0266 22.3633 11.0266 21.59C11.0266 20.8233 11.2233 20.21 11.6166 19.75C12.0166 19.2833 12.5366 19.05 13.1766 19.05C13.8433 19.05 14.3866 19.3333 14.8066 19.9V17.33H15.5566V24ZM13.3566 23.45C13.65 23.45 13.93 23.3767 14.1966 23.23C14.4633 23.0833 14.6666 22.9033 14.8066 22.69V20.5C14.6666 20.28 14.46 20.0967 14.1866 19.95C13.92 19.7967 13.6433 19.72 13.3566 19.72C12.8833 19.72 12.5066 19.8967 12.2266 20.25C11.9466 20.5967 11.8066 21.0433 11.8066 21.59C11.8066 22.1367 11.9466 22.5833 12.2266 22.93C12.5066 23.2767 12.8833 23.45 13.3566 23.45ZM18.0186 24H17.2686V19.83H16.4686V19.17H17.2686V18.8C17.2686 18.3067 17.3919 17.9233 17.6386 17.65C17.8919 17.37 18.2353 17.23 18.6686 17.23C19.0819 17.23 19.4219 17.3533 19.6886 17.6L19.3786 18.09C19.1986 17.93 18.9986 17.85 18.7786 17.85C18.5319 17.85 18.3419 17.9333 18.2086 18.1C18.0819 18.26 18.0186 18.4933 18.0186 18.8V19.17H18.9986V19.83H18.0186V24Z" fill="#2A374A"/>
    </symbol>

    <symbol id="quote" viewBox="0 0 28 24" fill="none">
        <path d="M4.85372 6.292C6.38844 4.771 8.71077 4 11.7551 4H12.849V6.819L11.9695 6.98C10.4708 7.254 9.42836 7.793 8.87048 8.584C8.57939 9.01013 8.41429 9.49804 8.39136 10H11.7551C12.0452 10 12.3234 10.1054 12.5286 10.2929C12.7337 10.4804 12.849 10.7348 12.849 11V18C12.849 19.103 11.8677 20 10.6612 20H4.09784C3.80772 20 3.52949 19.8946 3.32434 19.7071C3.1192 19.5196 3.00395 19.2652 3.00395 19V14L3.00723 11.081C2.99739 10.97 2.78955 8.34 4.85372 6.292ZM22.694 20H16.1306C15.8405 20 15.5623 19.8946 15.3571 19.7071C15.152 19.5196 15.0367 19.2652 15.0367 19V14L15.04 11.081C15.0302 10.97 14.8223 8.34 16.8865 6.292C18.4212 4.771 20.7436 4 23.7879 4H24.8817V6.819L24.0023 6.98C22.5036 7.254 21.4612 7.793 20.9033 8.584C20.6122 9.01013 20.4471 9.49804 20.4241 10H23.7879C24.078 10 24.3562 10.1054 24.5614 10.2929C24.7665 10.4804 24.8817 10.7348 24.8817 11V18C24.8817 19.103 23.9005 20 22.694 20Z" fill="#E30713"/>
    </symbol>

</svg>
